<svg width="320" height="65" viewBox="0 0 320 65" fill="none" xmlns="http://www.w3.org/2000/svg">
<path d="M0 0H320V65H0V0Z" fill="black"/>
<path d="M34.68 28.4C34.68 26.432 35.112 24.716 35.976 23.252C36.864 21.764 38.016 20.6 39.432 19.76C40.848 18.92 42.384 18.5 44.04 18.5C45.24 18.5 46.332 18.656 47.316 18.968C48.324 19.28 49.236 19.724 50.052 20.3C50.868 20.852 51.564 21.5 52.14 22.244V18.212C51.084 17.276 49.932 16.58 48.684 16.124C47.436 15.668 45.888 15.44 44.04 15.44C42.288 15.44 40.644 15.764 39.108 16.412C37.596 17.036 36.264 17.936 35.112 19.112C33.96 20.264 33.06 21.632 32.412 23.216C31.764 24.8 31.44 26.528 31.44 28.4C31.44 30.272 31.764 32 32.412 33.584C33.06 35.168 33.96 36.548 35.112 37.724C36.264 38.876 37.596 39.776 39.108 40.424C40.644 41.048 42.288 41.36 44.04 41.36C45.888 41.36 47.436 41.132 48.684 40.676C49.932 40.22 51.084 39.524 52.14 38.588V34.556C51.564 35.3 50.868 35.96 50.052 36.536C49.236 37.088 48.324 37.52 47.316 37.832C46.332 38.144 45.24 38.3 44.04 38.3C42.384 38.3 40.848 37.88 39.432 37.04C38.016 36.2 36.864 35.036 35.976 33.548C35.112 32.06 34.68 30.344 34.68 28.4ZM61.0165 23.972L69.2245 38.66L77.4325 23.972L79.3045 41H82.3645L79.3045 14.54L69.2245 32.792L59.1445 14.54L56.0845 41H59.1445L61.0165 23.972ZM87.6051 33.368L85.1571 35.024C85.7091 36.128 86.4171 37.172 87.2811 38.156C88.1691 39.116 89.1891 39.896 90.3411 40.496C91.5171 41.072 92.7891 41.36 94.1571 41.36C95.1651 41.36 96.1251 41.192 97.0371 40.856C97.9731 40.52 98.8011 40.04 99.5211 39.416C100.265 38.792 100.841 38.036 101.249 37.148C101.681 36.26 101.897 35.264 101.897 34.16C101.897 33.008 101.693 32.024 101.285 31.208C100.877 30.368 100.349 29.66 99.7011 29.084C99.0771 28.484 98.3931 27.992 97.6491 27.608C96.9051 27.224 96.1971 26.912 95.5251 26.672C94.0611 26.168 92.8971 25.664 92.0331 25.16C91.1931 24.632 90.5931 24.08 90.2331 23.504C89.8731 22.904 89.6931 22.256 89.6931 21.56C89.6931 20.744 90.0051 20.012 90.6291 19.364C91.2531 18.692 92.2491 18.356 93.6171 18.356C94.6011 18.356 95.4291 18.548 96.1011 18.932C96.7971 19.316 97.3851 19.808 97.8651 20.408C98.3451 21.008 98.7411 21.62 99.0531 22.244L101.681 20.732C101.273 19.844 100.709 19.004 99.9891 18.212C99.2691 17.396 98.3931 16.736 97.3611 16.232C96.3531 15.704 95.1651 15.44 93.7971 15.44C92.3811 15.44 91.1211 15.728 90.0171 16.304C88.9131 16.856 88.0491 17.624 87.4251 18.608C86.8011 19.592 86.4891 20.708 86.4891 21.956C86.4891 23.108 86.7051 24.08 87.1371 24.872C87.5931 25.664 88.1691 26.336 88.8651 26.888C89.5611 27.416 90.2931 27.86 91.0611 28.22C91.8291 28.556 92.5251 28.832 93.1491 29.048C94.1091 29.384 95.0091 29.768 95.8491 30.2C96.7131 30.608 97.4091 31.148 97.9371 31.82C98.4651 32.492 98.7291 33.392 98.7291 34.52C98.7291 35.672 98.3211 36.62 97.5051 37.364C96.6891 38.108 95.6091 38.48 94.2651 38.48C93.2571 38.48 92.3571 38.264 91.5651 37.832C90.7731 37.4 90.0531 36.8 89.4051 36.032C88.7811 35.264 88.1811 34.376 87.6051 33.368ZM117.185 15.8V41H120.245V15.8H117.185ZM118.877 18.68H124.025C125.657 18.68 126.977 19.076 127.985 19.868C129.017 20.636 129.533 21.8 129.533 23.36C129.533 24.896 129.017 26.06 127.985 26.852C126.977 27.644 125.657 28.04 124.025 28.04H118.877V30.92H124.025C125.657 30.92 127.109 30.62 128.381 30.02C129.677 29.396 130.697 28.52 131.441 27.392C132.209 26.24 132.593 24.896 132.593 23.36C132.593 21.8 132.209 20.456 131.441 19.328C130.697 18.2 129.677 17.336 128.381 16.736C127.109 16.112 125.657 15.8 124.025 15.8H118.877V18.68ZM136.934 35.888C136.934 35.288 137.078 34.772 137.366 34.34C137.654 33.908 138.086 33.572 138.662 33.332C139.262 33.092 140.03 32.972 140.966 32.972C141.974 32.972 142.922 33.104 143.81 33.368C144.698 33.608 145.562 34.016 146.402 34.592V32.9C146.234 32.684 145.91 32.408 145.43 32.072C144.95 31.712 144.302 31.4 143.486 31.136C142.694 30.848 141.698 30.704 140.498 30.704C138.458 30.704 136.862 31.196 135.71 32.18C134.582 33.14 134.018 34.424 134.018 36.032C134.018 37.16 134.282 38.12 134.81 38.912C135.338 39.704 136.034 40.316 136.898 40.748C137.786 41.156 138.734 41.36 139.742 41.36C140.654 41.36 141.566 41.192 142.478 40.856C143.414 40.52 144.194 40.004 144.818 39.308C145.466 38.612 145.79 37.736 145.79 36.68L145.214 34.52C145.214 35.384 144.998 36.152 144.566 36.824C144.158 37.472 143.594 37.976 142.874 38.336C142.178 38.696 141.386 38.876 140.498 38.876C139.802 38.876 139.178 38.768 138.626 38.552C138.098 38.312 137.678 37.964 137.366 37.508C137.078 37.052 136.934 36.512 136.934 35.888ZM136.502 28.256C136.766 28.064 137.126 27.836 137.582 27.572C138.038 27.308 138.59 27.08 139.238 26.888C139.91 26.696 140.654 26.6 141.47 26.6C141.974 26.6 142.454 26.648 142.91 26.744C143.366 26.84 143.762 26.996 144.098 27.212C144.458 27.428 144.734 27.728 144.926 28.112C145.118 28.472 145.214 28.94 145.214 29.516V41H148.094V29.12C148.094 28.04 147.818 27.128 147.266 26.384C146.738 25.64 145.982 25.076 144.998 24.692C144.038 24.284 142.91 24.08 141.614 24.08C140.078 24.08 138.758 24.308 137.654 24.764C136.574 25.22 135.722 25.676 135.098 26.132L136.502 28.256ZM151.854 42.08C151.854 43.496 152.202 44.744 152.898 45.824C153.594 46.928 154.554 47.78 155.778 48.38C157.026 48.98 158.454 49.28 160.062 49.28C161.454 49.28 162.774 48.956 164.022 48.308C165.27 47.66 166.29 46.688 167.082 45.392C167.874 44.12 168.27 42.536 168.27 40.64V24.44H165.39V40.64C165.39 42.032 165.114 43.16 164.562 44.024C164.034 44.912 163.362 45.56 162.546 45.968C161.73 46.376 160.902 46.58 160.062 46.58C158.982 46.58 158.046 46.364 157.254 45.932C156.462 45.524 155.85 44.972 155.418 44.276C154.986 43.604 154.77 42.872 154.77 42.08H151.854ZM151.53 32.72C151.53 34.496 151.902 36.032 152.646 37.328C153.39 38.624 154.386 39.62 155.634 40.316C156.882 41.012 158.25 41.36 159.738 41.36C161.13 41.36 162.342 41.012 163.374 40.316C164.406 39.62 165.21 38.624 165.786 37.328C166.386 36.032 166.686 34.496 166.686 32.72C166.686 30.92 166.386 29.384 165.786 28.112C165.21 26.816 164.406 25.82 163.374 25.124C162.342 24.428 161.13 24.08 159.738 24.08C158.25 24.08 156.882 24.428 155.634 25.124C154.386 25.82 153.39 26.816 152.646 28.112C151.902 29.384 151.53 30.92 151.53 32.72ZM154.446 32.72C154.446 31.448 154.698 30.368 155.202 29.48C155.73 28.592 156.426 27.92 157.29 27.464C158.154 27.008 159.09 26.78 160.098 26.78C160.722 26.78 161.346 26.912 161.97 27.176C162.594 27.44 163.158 27.824 163.662 28.328C164.19 28.832 164.61 29.456 164.922 30.2C165.234 30.92 165.39 31.76 165.39 32.72C165.39 33.992 165.126 35.072 164.598 35.96C164.07 36.848 163.398 37.52 162.582 37.976C161.766 38.432 160.938 38.66 160.098 38.66C159.09 38.66 158.154 38.432 157.29 37.976C156.426 37.52 155.73 36.848 155.202 35.96C154.698 35.072 154.446 33.992 154.446 32.72ZM179.909 41.36C181.685 41.36 183.221 41.012 184.517 40.316C185.837 39.596 186.929 38.54 187.793 37.148L185.453 35.672C184.853 36.68 184.121 37.436 183.257 37.94C182.393 38.42 181.397 38.66 180.269 38.66C179.141 38.66 178.181 38.42 177.389 37.94C176.597 37.46 175.997 36.764 175.589 35.852C175.181 34.94 174.977 33.836 174.977 32.54C175.001 31.268 175.217 30.2 175.625 29.336C176.057 28.448 176.657 27.776 177.425 27.32C178.217 26.84 179.165 26.6 180.269 26.6C181.205 26.6 182.021 26.804 182.717 27.212C183.413 27.62 183.953 28.184 184.337 28.904C184.745 29.624 184.949 30.476 184.949 31.46C184.949 31.628 184.913 31.844 184.841 32.108C184.769 32.348 184.697 32.528 184.625 32.648L185.777 30.992H173.897V33.44H188.045C188.045 33.392 188.045 33.284 188.045 33.116C188.069 32.924 188.081 32.744 188.081 32.576C188.081 30.824 187.769 29.312 187.145 28.04C186.521 26.768 185.621 25.796 184.445 25.124C183.293 24.428 181.901 24.08 180.269 24.08C178.637 24.08 177.197 24.44 175.949 25.16C174.725 25.88 173.765 26.888 173.069 28.184C172.397 29.48 172.061 30.992 172.061 32.72C172.061 34.424 172.385 35.924 173.033 37.22C173.705 38.516 174.629 39.536 175.805 40.28C177.005 41 178.373 41.36 179.909 41.36ZM192.712 35.924L190.444 37.328C190.756 37.976 191.212 38.612 191.812 39.236C192.436 39.86 193.192 40.376 194.08 40.784C194.968 41.168 195.964 41.36 197.068 41.36C198.772 41.36 200.14 40.88 201.172 39.92C202.228 38.96 202.756 37.76 202.756 36.32C202.756 35.336 202.516 34.532 202.036 33.908C201.58 33.284 200.956 32.756 200.164 32.324C199.372 31.868 198.496 31.448 197.536 31.064C196.96 30.824 196.408 30.572 195.88 30.308C195.352 30.044 194.92 29.744 194.584 29.408C194.248 29.072 194.08 28.688 194.08 28.256C194.08 27.704 194.296 27.296 194.728 27.032C195.16 26.768 195.676 26.636 196.276 26.636C197.14 26.636 197.908 26.84 198.58 27.248C199.276 27.656 199.852 28.172 200.308 28.796L202.612 27.32C202.276 26.696 201.808 26.144 201.208 25.664C200.608 25.184 199.912 24.8 199.12 24.512C198.352 24.224 197.524 24.08 196.636 24.08C195.748 24.08 194.884 24.236 194.044 24.548C193.228 24.86 192.556 25.34 192.028 25.988C191.524 26.636 191.272 27.452 191.272 28.436C191.272 29.396 191.512 30.2 191.992 30.848C192.496 31.472 193.108 31.988 193.828 32.396C194.572 32.78 195.304 33.116 196.024 33.404C196.672 33.644 197.284 33.908 197.86 34.196C198.436 34.46 198.904 34.796 199.264 35.204C199.648 35.588 199.84 36.068 199.84 36.644C199.84 37.292 199.6 37.808 199.12 38.192C198.664 38.552 198.028 38.732 197.212 38.732C196.54 38.732 195.916 38.612 195.34 38.372C194.788 38.108 194.296 37.76 193.864 37.328C193.432 36.896 193.048 36.428 192.712 35.924Z" fill="white"/>
</svg>
