<svg width="1300" height="14" viewBox="0 0 1300 14" fill="none" xmlns="http://www.w3.org/2000/svg">
<path d="M69.03 6.15L66.95 0.65L64.91 6.15L63.05 1H62.1L64.85 8.35L66.95 2.91L69.05 8.35L71.8 1H70.85L69.03 6.15ZM73.1723 8H76.7023V7.2H73.1723V8ZM73.1723 1.8H76.7023V1H73.1723V1.8ZM73.1723 4.6H76.5023V3.8H73.1723V4.6ZM72.7023 1V8H73.5523V1H72.7023ZM78.8704 4.3H80.0004C80.4204 4.3 80.7837 4.24 81.0904 4.12C81.4037 4 81.6471 3.82333 81.8204 3.59C81.9937 3.35667 82.0804 3.07667 82.0804 2.75C82.0804 2.35 81.9937 2.02333 81.8204 1.77C81.6471 1.51 81.4037 1.31667 81.0904 1.19C80.7837 1.06333 80.4204 1 80.0004 1H78.2004V8H80.1004C80.5537 8 80.9571 7.92667 81.3104 7.78C81.6704 7.62667 81.9537 7.4 82.1604 7.1C82.3737 6.79333 82.4804 6.41 82.4804 5.95C82.4804 5.63 82.4204 5.35333 82.3004 5.12C82.1804 4.88667 82.0104 4.69667 81.7904 4.55C81.5771 4.39667 81.3271 4.28333 81.0404 4.21C80.7537 4.13667 80.4404 4.1 80.1004 4.1H78.8704V4.57H80.1004C80.3271 4.57 80.5337 4.6 80.7204 4.66C80.9071 4.71333 81.0671 4.79667 81.2004 4.91C81.3404 5.02333 81.4471 5.16333 81.5204 5.33C81.5937 5.49667 81.6304 5.68667 81.6304 5.9C81.6304 6.18667 81.5637 6.43 81.4304 6.63C81.3037 6.83 81.1237 6.98333 80.8904 7.09C80.6637 7.19667 80.4004 7.25 80.1004 7.25H79.0504V1.75H80.0004C80.3537 1.75 80.6471 1.84333 80.8804 2.03C81.1137 2.21 81.2304 2.46667 81.2304 2.8C81.2304 3.02 81.1771 3.20667 81.0704 3.36C80.9637 3.51333 80.8171 3.63 80.6304 3.71C80.4437 3.79 80.2337 3.83 80.0004 3.83H78.8704V4.3ZM84.2466 1.8H87.3766V1H84.2466V1.8ZM84.2466 4.6H87.2766V3.8H84.2466V4.6ZM83.7766 1V8H84.6266V1H83.7766ZM88.7766 1V8H92.3766V7.2H89.6266V1H88.7766ZM93.4758 4.5C93.4758 3.97333 93.5891 3.50333 93.8158 3.09C94.0491 2.67667 94.3658 2.35 94.7658 2.11C95.1658 1.87 95.6191 1.75 96.1258 1.75C96.6391 1.75 97.0924 1.87 97.4858 2.11C97.8858 2.35 98.1991 2.67667 98.4258 3.09C98.6591 3.50333 98.7758 3.97333 98.7758 4.5C98.7758 5.02667 98.6591 5.49667 98.4258 5.91C98.1991 6.32333 97.8858 6.65 97.4858 6.89C97.0924 7.13 96.6391 7.25 96.1258 7.25C95.6191 7.25 95.1658 7.13 94.7658 6.89C94.3658 6.65 94.0491 6.32333 93.8158 5.91C93.5891 5.49667 93.4758 5.02667 93.4758 4.5ZM92.5758 4.5C92.5758 5.00667 92.6624 5.48 92.8358 5.92C93.0158 6.36 93.2658 6.74333 93.5858 7.07C93.9058 7.39 94.2824 7.64333 94.7158 7.83C95.1491 8.01 95.6191 8.1 96.1258 8.1C96.6391 8.1 97.1091 8.01 97.5358 7.83C97.9691 7.64333 98.3458 7.39 98.6658 7.07C98.9858 6.74333 99.2324 6.36 99.4058 5.92C99.5858 5.48 99.6758 5.00667 99.6758 4.5C99.6758 3.98667 99.5858 3.51333 99.4058 3.08C99.2324 2.64 98.9858 2.26 98.6658 1.94C98.3458 1.61333 97.9691 1.36 97.5358 1.18C97.1091 0.993333 96.6391 0.9 96.1258 0.9C95.6191 0.9 95.1491 0.993333 94.7158 1.18C94.2824 1.36 93.9058 1.61333 93.5858 1.94C93.2658 2.26 93.0158 2.64 92.8358 3.08C92.6624 3.51333 92.5758 3.98667 92.5758 4.5ZM106.803 6.15L104.723 0.65L102.683 6.15L100.823 1H99.8734L102.623 8.35L104.723 2.91L106.823 8.35L109.573 1H108.623L106.803 6.15Z" fill="#E2B013"/>
<path d="M1266.75 1V5.7C1266.75 6.04667 1266.8 6.36667 1266.91 6.66C1267.02 6.95333 1267.18 7.20667 1267.39 7.42C1267.6 7.63333 1267.86 7.8 1268.15 7.92C1268.44 8.04 1268.77 8.1 1269.13 8.1C1269.49 8.1 1269.82 8.04 1270.11 7.92C1270.4 7.8 1270.65 7.63333 1270.86 7.42C1271.07 7.20667 1271.23 6.95333 1271.34 6.66C1271.45 6.36667 1271.51 6.04667 1271.51 5.7V1H1270.66V5.7C1270.66 6.18 1270.53 6.56667 1270.27 6.86C1270.01 7.15333 1269.63 7.3 1269.13 7.3C1268.63 7.3 1268.25 7.15333 1267.99 6.86C1267.73 6.56667 1267.6 6.18 1267.6 5.7V1H1266.75ZM1273.06 1V8H1273.91V1H1273.06ZM1275.16 8C1275.84 8 1276.44 7.85333 1276.97 7.56C1277.5 7.26667 1277.91 6.86 1278.21 6.34C1278.51 5.81333 1278.66 5.2 1278.66 4.5C1278.66 3.8 1278.51 3.19 1278.21 2.67C1277.91 2.14333 1277.5 1.73333 1276.97 1.44C1276.44 1.14667 1275.84 1 1275.16 1H1273.53V1.85H1275.16C1275.55 1.85 1275.91 1.91333 1276.24 2.04C1276.57 2.16 1276.85 2.33667 1277.08 2.57C1277.31 2.79667 1277.49 3.07333 1277.62 3.4C1277.75 3.72667 1277.81 4.09333 1277.81 4.5C1277.81 4.90667 1277.75 5.27333 1277.62 5.6C1277.49 5.92667 1277.31 6.20667 1277.08 6.44C1276.85 6.66667 1276.57 6.84333 1276.24 6.97C1275.91 7.09 1275.55 7.15 1275.16 7.15H1273.53V8H1275.16ZM1280.33 8H1283.86V7.2H1280.33V8ZM1280.33 1.8H1283.86V1H1280.33V1.8ZM1280.33 4.6H1283.66V3.8H1280.33V4.6ZM1279.86 1V8H1280.71V1H1279.86ZM1285.61 5.88L1284.93 6.34C1285.09 6.64667 1285.28 6.93667 1285.52 7.21C1285.77 7.47667 1286.05 7.69333 1286.37 7.86C1286.7 8.02 1287.05 8.1 1287.43 8.1C1287.71 8.1 1287.98 8.05333 1288.23 7.96C1288.49 7.86667 1288.72 7.73333 1288.92 7.56C1289.13 7.38667 1289.29 7.17667 1289.4 6.93C1289.52 6.68333 1289.58 6.40667 1289.58 6.1C1289.58 5.78 1289.53 5.50667 1289.41 5.28C1289.3 5.04667 1289.15 4.85 1288.97 4.69C1288.8 4.52333 1288.61 4.38667 1288.4 4.28C1288.2 4.17333 1288 4.08667 1287.81 4.02C1287.41 3.88 1287.08 3.74 1286.84 3.6C1286.61 3.45333 1286.44 3.3 1286.34 3.14C1286.24 2.97333 1286.19 2.79333 1286.19 2.6C1286.19 2.37333 1286.28 2.17 1286.45 1.99C1286.63 1.80333 1286.9 1.71 1287.28 1.71C1287.56 1.71 1287.79 1.76333 1287.97 1.87C1288.17 1.97667 1288.33 2.11333 1288.46 2.28C1288.6 2.44667 1288.71 2.61667 1288.79 2.79L1289.52 2.37C1289.41 2.12333 1289.25 1.89 1289.05 1.67C1288.85 1.44333 1288.61 1.26 1288.32 1.12C1288.04 0.973333 1287.71 0.9 1287.33 0.9C1286.94 0.9 1286.59 0.98 1286.28 1.14C1285.98 1.29333 1285.74 1.50667 1285.56 1.78C1285.39 2.05333 1285.3 2.36333 1285.3 2.71C1285.3 3.03 1285.36 3.3 1285.48 3.52C1285.61 3.74 1285.77 3.92667 1285.96 4.08C1286.16 4.22667 1286.36 4.35 1286.57 4.45C1286.79 4.54333 1286.98 4.62 1287.15 4.68C1287.42 4.77333 1287.67 4.88 1287.9 5C1288.14 5.11333 1288.34 5.26333 1288.48 5.45C1288.63 5.63667 1288.7 5.88667 1288.7 6.2C1288.7 6.52 1288.59 6.78333 1288.36 6.99C1288.14 7.19667 1287.84 7.3 1287.46 7.3C1287.18 7.3 1286.93 7.24 1286.71 7.12C1286.49 7 1286.29 6.83333 1286.11 6.62C1285.94 6.40667 1285.77 6.16 1285.61 5.88ZM1290.83 1V8H1294.43V7.2H1291.68V1H1290.83ZM1298.44 1L1296.63 4.24L1294.83 1H1293.88L1296.21 4.99V8H1297.06V4.98L1299.39 1H1298.44Z" fill="#E2B013"/>
<path d="M1209.3 4.5C1209.3 3.95333 1209.42 3.47667 1209.66 3.07C1209.91 2.65667 1210.23 2.33333 1210.62 2.1C1211.01 1.86667 1211.44 1.75 1211.9 1.75C1212.23 1.75 1212.54 1.79333 1212.81 1.88C1213.09 1.96667 1213.34 2.09 1213.57 2.25C1213.8 2.40333 1213.99 2.58333 1214.15 2.79V1.67C1213.86 1.41 1213.54 1.21667 1213.19 1.09C1212.84 0.963333 1212.41 0.9 1211.9 0.9C1211.41 0.9 1210.96 0.99 1210.53 1.17C1210.11 1.34333 1209.74 1.59333 1209.42 1.92C1209.1 2.24 1208.85 2.62 1208.67 3.06C1208.49 3.5 1208.4 3.98 1208.4 4.5C1208.4 5.02 1208.49 5.5 1208.67 5.94C1208.85 6.38 1209.1 6.76333 1209.42 7.09C1209.74 7.41 1210.11 7.66 1210.53 7.84C1210.96 8.01333 1211.41 8.1 1211.9 8.1C1212.41 8.1 1212.84 8.03667 1213.19 7.91C1213.54 7.78333 1213.86 7.59 1214.15 7.33V6.21C1213.99 6.41667 1213.8 6.6 1213.57 6.76C1213.34 6.91333 1213.09 7.03333 1212.81 7.12C1212.54 7.20667 1212.23 7.25 1211.9 7.25C1211.44 7.25 1211.01 7.13333 1210.62 6.9C1210.23 6.66667 1209.91 6.34333 1209.66 5.93C1209.42 5.51667 1209.3 5.04 1209.3 4.5ZM1216.9 4.55L1219.3 8H1220.35L1217.85 4.55H1216.9ZM1215.65 1V8H1216.5V1H1215.65ZM1216.12 1.75H1217.55C1217.85 1.75 1218.11 1.80333 1218.34 1.91C1218.57 2.01667 1218.75 2.17 1218.88 2.37C1219.01 2.57 1219.08 2.81333 1219.08 3.1C1219.08 3.38667 1219.01 3.63 1218.88 3.83C1218.75 4.03 1218.57 4.18333 1218.34 4.29C1218.11 4.39667 1217.85 4.45 1217.55 4.45H1216.12V5.2H1217.55C1218 5.2 1218.4 5.11667 1218.76 4.95C1219.12 4.77667 1219.4 4.53333 1219.61 4.22C1219.82 3.9 1219.93 3.52667 1219.93 3.1C1219.93 2.66667 1219.82 2.29333 1219.61 1.98C1219.4 1.66667 1219.12 1.42667 1218.76 1.26C1218.4 1.08667 1218 1 1217.55 1H1216.12V1.75ZM1221.71 8H1225.24V7.2H1221.71V8ZM1221.71 1.8H1225.24V1H1221.71V1.8ZM1221.71 4.6H1225.04V3.8H1221.71V4.6ZM1221.24 1V8H1222.09V1H1221.24ZM1227.41 5.9H1231.11L1230.81 5.1H1227.71L1227.41 5.9ZM1229.24 2.58L1230.44 5.4L1230.52 5.6L1231.54 8H1232.49L1229.24 0.65L1225.99 8H1226.94L1227.98 5.54L1228.06 5.36L1229.24 2.58ZM1231.94 1.8H1233.74V8H1234.59V1.8H1236.39V1H1231.94V1.8ZM1237.76 8H1241.29V7.2H1237.76V8ZM1237.76 1.8H1241.29V1H1237.76V1.8ZM1237.76 4.6H1241.09V3.8H1237.76V4.6ZM1237.29 1V8H1238.14V1H1237.29ZM1242.78 1V8H1243.63V1H1242.78ZM1244.88 8C1245.56 8 1246.17 7.85333 1246.69 7.56C1247.22 7.26667 1247.63 6.86 1247.93 6.34C1248.23 5.81333 1248.38 5.2 1248.38 4.5C1248.38 3.8 1248.23 3.19 1247.93 2.67C1247.63 2.14333 1247.22 1.73333 1246.69 1.44C1246.17 1.14667 1245.56 1 1244.88 1H1243.25V1.85H1244.88C1245.28 1.85 1245.64 1.91333 1245.96 2.04C1246.29 2.16 1246.57 2.33667 1246.8 2.57C1247.04 2.79667 1247.22 3.07333 1247.34 3.4C1247.47 3.72667 1247.53 4.09333 1247.53 4.5C1247.53 4.90667 1247.47 5.27333 1247.34 5.6C1247.22 5.92667 1247.04 6.20667 1246.8 6.44C1246.57 6.66667 1246.29 6.84333 1245.96 6.97C1245.64 7.09 1245.28 7.15 1244.88 7.15H1243.25V8H1244.88ZM1253.25 4.3H1254.38C1254.8 4.3 1255.16 4.24 1255.47 4.12C1255.78 4 1256.03 3.82333 1256.2 3.59C1256.37 3.35667 1256.46 3.07667 1256.46 2.75C1256.46 2.35 1256.37 2.02333 1256.2 1.77C1256.03 1.51 1255.78 1.31667 1255.47 1.19C1255.16 1.06333 1254.8 1 1254.38 1H1252.58V8H1254.48C1254.93 8 1255.34 7.92667 1255.69 7.78C1256.05 7.62667 1256.33 7.4 1256.54 7.1C1256.75 6.79333 1256.86 6.41 1256.86 5.95C1256.86 5.63 1256.8 5.35333 1256.68 5.12C1256.56 4.88667 1256.39 4.69667 1256.17 4.55C1255.96 4.39667 1255.71 4.28333 1255.42 4.21C1255.13 4.13667 1254.82 4.1 1254.48 4.1H1253.25V4.57H1254.48C1254.71 4.57 1254.91 4.6 1255.1 4.66C1255.29 4.71333 1255.45 4.79667 1255.58 4.91C1255.72 5.02333 1255.83 5.16333 1255.9 5.33C1255.97 5.49667 1256.01 5.68667 1256.01 5.9C1256.01 6.18667 1255.94 6.43 1255.81 6.63C1255.68 6.83 1255.5 6.98333 1255.27 7.09C1255.04 7.19667 1254.78 7.25 1254.48 7.25H1253.43V1.75H1254.38C1254.73 1.75 1255.03 1.84333 1255.26 2.03C1255.49 2.21 1255.61 2.46667 1255.61 2.8C1255.61 3.02 1255.56 3.20667 1255.45 3.36C1255.34 3.51333 1255.2 3.63 1255.01 3.71C1254.82 3.79 1254.61 3.83 1254.38 3.83H1253.25V4.3ZM1261.66 1L1259.85 4.24L1258.05 1H1257.1L1259.43 4.99V8H1260.28V4.98L1262.61 1H1261.66Z" fill="#333333"/>
<path d="M0.8 1V8H1.65V1H0.8ZM1.27 1.8H2.7C3.15333 1.8 3.52 1.91 3.8 2.13C4.08667 2.34333 4.23 2.66667 4.23 3.1C4.23 3.52667 4.08667 3.85 3.8 4.07C3.52 4.29 3.15333 4.4 2.7 4.4H1.27V5.2H2.7C3.15333 5.2 3.55667 5.11667 3.91 4.95C4.27 4.77667 4.55333 4.53333 4.76 4.22C4.97333 3.9 5.08 3.52667 5.08 3.1C5.08 2.66667 4.97333 2.29333 4.76 1.98C4.55333 1.66667 4.27 1.42667 3.91 1.26C3.55667 1.08667 3.15333 1 2.7 1H1.27V1.8ZM6.77852 4.5C6.77852 3.97333 6.89185 3.50333 7.11852 3.09C7.35185 2.67667 7.66852 2.35 8.06852 2.11C8.46852 1.87 8.92185 1.75 9.42852 1.75C9.94185 1.75 10.3952 1.87 10.7885 2.11C11.1885 2.35 11.5018 2.67667 11.7285 3.09C11.9618 3.50333 12.0785 3.97333 12.0785 4.5C12.0785 5.02667 11.9618 5.49667 11.7285 5.91C11.5018 6.32333 11.1885 6.65 10.7885 6.89C10.3952 7.13 9.94185 7.25 9.42852 7.25C8.92185 7.25 8.46852 7.13 8.06852 6.89C7.66852 6.65 7.35185 6.32333 7.11852 5.91C6.89185 5.49667 6.77852 5.02667 6.77852 4.5ZM5.87852 4.5C5.87852 5.00667 5.96518 5.48 6.13852 5.92C6.31852 6.36 6.56852 6.74333 6.88852 7.07C7.20852 7.39 7.58518 7.64333 8.01852 7.83C8.45185 8.01 8.92185 8.1 9.42852 8.1C9.94185 8.1 10.4118 8.01 10.8385 7.83C11.2718 7.64333 11.6485 7.39 11.9685 7.07C12.2885 6.74333 12.5352 6.36 12.7085 5.92C12.8885 5.48 12.9785 5.00667 12.9785 4.5C12.9785 3.98667 12.8885 3.51333 12.7085 3.08C12.5352 2.64 12.2885 2.26 11.9685 1.94C11.6485 1.61333 11.2718 1.36 10.8385 1.18C10.4118 0.993333 9.94185 0.9 9.42852 0.9C8.92185 0.9 8.45185 0.993333 8.01852 1.18C7.58518 1.36 7.20852 1.61333 6.88852 1.94C6.56852 2.26 6.31852 2.64 6.13852 3.08C5.96518 3.51333 5.87852 3.98667 5.87852 4.5ZM20.1062 6.15L18.0262 0.65L15.9862 6.15L14.1262 1H13.1762L15.9262 8.35L18.0262 2.91L20.1262 8.35L22.8762 1H21.9262L20.1062 6.15ZM24.2485 8H27.7785V7.2H24.2485V8ZM24.2485 1.8H27.7785V1H24.2485V1.8ZM24.2485 4.6H27.5785V3.8H24.2485V4.6ZM23.7785 1V8H24.6285V1H23.7785ZM30.5266 4.55L32.9266 8H33.9766L31.4766 4.55H30.5266ZM29.2766 1V8H30.1266V1H29.2766ZM29.7466 1.75H31.1766C31.4766 1.75 31.7399 1.80333 31.9666 1.91C32.1999 2.01667 32.3799 2.17 32.5066 2.37C32.6399 2.57 32.7066 2.81333 32.7066 3.1C32.7066 3.38667 32.6399 3.63 32.5066 3.83C32.3799 4.03 32.1999 4.18333 31.9666 4.29C31.7399 4.39667 31.4766 4.45 31.1766 4.45H29.7466V5.2H31.1766C31.6299 5.2 32.0332 5.11667 32.3866 4.95C32.7466 4.77667 33.0299 4.53333 33.2366 4.22C33.4499 3.9 33.5566 3.52667 33.5566 3.1C33.5566 2.66667 33.4499 2.29333 33.2366 1.98C33.0299 1.66667 32.7466 1.42667 32.3866 1.26C32.0332 1.08667 31.6299 1 31.1766 1H29.7466V1.75ZM35.3423 8H38.8723V7.2H35.3423V8ZM35.3423 1.8H38.8723V1H35.3423V1.8ZM35.3423 4.6H38.6723V3.8H35.3423V4.6ZM34.8723 1V8H35.7223V1H34.8723ZM40.3703 1V8H41.2203V1H40.3703ZM42.4703 8C43.1503 8 43.7536 7.85333 44.2803 7.56C44.807 7.26667 45.2203 6.86 45.5203 6.34C45.8203 5.81333 45.9703 5.2 45.9703 4.5C45.9703 3.8 45.8203 3.19 45.5203 2.67C45.2203 2.14333 44.807 1.73333 44.2803 1.44C43.7536 1.14667 43.1503 1 42.4703 1H40.8403V1.85H42.4703C42.8636 1.85 43.2236 1.91333 43.5503 2.04C43.877 2.16 44.157 2.33667 44.3903 2.57C44.6236 2.79667 44.8036 3.07333 44.9303 3.4C45.057 3.72667 45.1203 4.09333 45.1203 4.5C45.1203 4.90667 45.057 5.27333 44.9303 5.6C44.8036 5.92667 44.6236 6.20667 44.3903 6.44C44.157 6.66667 43.877 6.84333 43.5503 6.97C43.2236 7.09 42.8636 7.15 42.4703 7.15H40.8403V8H42.4703ZM50.8352 4.3H51.9652C52.3852 4.3 52.7486 4.24 53.0552 4.12C53.3686 4 53.6119 3.82333 53.7852 3.59C53.9586 3.35667 54.0452 3.07667 54.0452 2.75C54.0452 2.35 53.9586 2.02333 53.7852 1.77C53.6119 1.51 53.3686 1.31667 53.0552 1.19C52.7486 1.06333 52.3852 1 51.9652 1H50.1652V8H52.0652C52.5186 8 52.9219 7.92667 53.2752 7.78C53.6352 7.62667 53.9186 7.4 54.1252 7.1C54.3386 6.79333 54.4452 6.41 54.4452 5.95C54.4452 5.63 54.3852 5.35333 54.2652 5.12C54.1452 4.88667 53.9752 4.69667 53.7552 4.55C53.5419 4.39667 53.2919 4.28333 53.0052 4.21C52.7186 4.13667 52.4052 4.1 52.0652 4.1H50.8352V4.57H52.0652C52.2919 4.57 52.4986 4.6 52.6852 4.66C52.8719 4.71333 53.0319 4.79667 53.1652 4.91C53.3052 5.02333 53.4119 5.16333 53.4852 5.33C53.5586 5.49667 53.5952 5.68667 53.5952 5.9C53.5952 6.18667 53.5286 6.43 53.3952 6.63C53.2686 6.83 53.0886 6.98333 52.8552 7.09C52.6286 7.19667 52.3652 7.25 52.0652 7.25H51.0152V1.75H51.9652C52.3186 1.75 52.6119 1.84333 52.8452 2.03C53.0786 2.21 53.1952 2.46667 53.1952 2.8C53.1952 3.02 53.1419 3.20667 53.0352 3.36C52.9286 3.51333 52.7819 3.63 52.5952 3.71C52.4086 3.79 52.1986 3.83 51.9652 3.83H50.8352V4.3ZM59.2487 1L57.4387 4.24L55.6387 1H54.6887L57.0187 4.99V8H57.8687V4.98L60.1987 1H59.2487Z" fill="#333333"/>
</svg>
