<svg width="288" height="65" viewBox="0 0 288 65" fill="none" xmlns="http://www.w3.org/2000/svg">
<path d="M0 0H288V65H0V0Z" fill="black"/>
<path d="M34.68 28.4C34.68 26.432 35.112 24.716 35.976 23.252C36.864 21.764 38.016 20.6 39.432 19.76C40.848 18.92 42.384 18.5 44.04 18.5C45.24 18.5 46.332 18.656 47.316 18.968C48.324 19.28 49.236 19.724 50.052 20.3C50.868 20.852 51.564 21.5 52.14 22.244V18.212C51.084 17.276 49.932 16.58 48.684 16.124C47.436 15.668 45.888 15.44 44.04 15.44C42.288 15.44 40.644 15.764 39.108 16.412C37.596 17.036 36.264 17.936 35.112 19.112C33.96 20.264 33.06 21.632 32.412 23.216C31.764 24.8 31.44 26.528 31.44 28.4C31.44 30.272 31.764 32 32.412 33.584C33.06 35.168 33.96 36.548 35.112 37.724C36.264 38.876 37.596 39.776 39.108 40.424C40.644 41.048 42.288 41.36 44.04 41.36C45.888 41.36 47.436 41.132 48.684 40.676C49.932 40.22 51.084 39.524 52.14 38.588V34.556C51.564 35.3 50.868 35.96 50.052 36.536C49.236 37.088 48.324 37.52 47.316 37.832C46.332 38.144 45.24 38.3 44.04 38.3C42.384 38.3 40.848 37.88 39.432 37.04C38.016 36.2 36.864 35.036 35.976 33.548C35.112 32.06 34.68 30.344 34.68 28.4ZM55.9045 32.72C55.9045 34.376 56.2765 35.864 57.0205 37.184C57.7885 38.48 58.8205 39.5 60.1165 40.244C61.4125 40.988 62.8645 41.36 64.4725 41.36C66.1045 41.36 67.5565 40.988 68.8285 40.244C70.1245 39.5 71.1445 38.48 71.8885 37.184C72.6565 35.864 73.0405 34.376 73.0405 32.72C73.0405 31.04 72.6565 29.552 71.8885 28.256C71.1445 26.96 70.1245 25.94 68.8285 25.196C67.5565 24.452 66.1045 24.08 64.4725 24.08C62.8645 24.08 61.4125 24.452 60.1165 25.196C58.8205 25.94 57.7885 26.96 57.0205 28.256C56.2765 29.552 55.9045 31.04 55.9045 32.72ZM58.8205 32.72C58.8205 31.568 59.0605 30.548 59.5405 29.66C60.0445 28.748 60.7165 28.04 61.5565 27.536C62.4205 27.032 63.3925 26.78 64.4725 26.78C65.5525 26.78 66.5125 27.032 67.3525 27.536C68.2165 28.04 68.8885 28.748 69.3685 29.66C69.8725 30.548 70.1245 31.568 70.1245 32.72C70.1245 33.872 69.8725 34.892 69.3685 35.78C68.8885 36.668 68.2165 37.376 67.3525 37.904C66.5125 38.408 65.5525 38.66 64.4725 38.66C63.3925 38.66 62.4205 38.408 61.5565 37.904C60.7165 37.376 60.0445 36.668 59.5405 35.78C59.0605 34.892 58.8205 33.872 58.8205 32.72ZM99.6769 30.56C99.6769 29.192 99.4609 28.028 99.0289 27.068C98.6209 26.084 98.0209 25.34 97.2289 24.836C96.4369 24.332 95.4769 24.08 94.3489 24.08C93.2449 24.08 92.2609 24.344 91.3969 24.872C90.5329 25.376 89.8129 26.144 89.2369 27.176C88.8529 26.192 88.2409 25.436 87.4009 24.908C86.5849 24.356 85.6009 24.08 84.4489 24.08C83.4169 24.08 82.5169 24.308 81.7489 24.764C81.0049 25.22 80.3809 25.916 79.8769 26.852V24.44H76.9969V41H79.8769V30.92C79.8769 30.056 80.0329 29.312 80.3449 28.688C80.6569 28.064 81.1009 27.596 81.6769 27.284C82.2529 26.948 82.9369 26.78 83.7289 26.78C84.8089 26.78 85.6009 27.116 86.1049 27.788C86.6329 28.46 86.8969 29.504 86.8969 30.92V41H89.7769V30.92C89.7769 30.056 89.9329 29.312 90.2449 28.688C90.5569 28.064 91.0009 27.596 91.5769 27.284C92.1529 26.948 92.8369 26.78 93.6289 26.78C94.7089 26.78 95.5009 27.116 96.0049 27.788C96.5329 28.46 96.7969 29.504 96.7969 30.92V41H99.6769V30.56ZM107.787 48.92V24.44H104.907V48.92H107.787ZM121.647 32.72C121.647 30.92 121.275 29.384 120.531 28.112C119.787 26.816 118.791 25.82 117.543 25.124C116.319 24.428 114.951 24.08 113.439 24.08C112.071 24.08 110.859 24.428 109.803 25.124C108.771 25.82 107.955 26.816 107.355 28.112C106.779 29.384 106.491 30.92 106.491 32.72C106.491 34.496 106.779 36.032 107.355 37.328C107.955 38.624 108.771 39.62 109.803 40.316C110.859 41.012 112.071 41.36 113.439 41.36C114.951 41.36 116.319 41.012 117.543 40.316C118.791 39.62 119.787 38.624 120.531 37.328C121.275 36.032 121.647 34.496 121.647 32.72ZM118.731 32.72C118.731 33.992 118.467 35.072 117.939 35.96C117.435 36.848 116.751 37.52 115.887 37.976C115.047 38.432 114.111 38.66 113.079 38.66C112.239 38.66 111.411 38.432 110.595 37.976C109.779 37.52 109.107 36.848 108.579 35.96C108.051 35.072 107.787 33.992 107.787 32.72C107.787 31.448 108.051 30.368 108.579 29.48C109.107 28.592 109.779 27.92 110.595 27.464C111.411 27.008 112.239 26.78 113.079 26.78C114.111 26.78 115.047 27.008 115.887 27.464C116.751 27.92 117.435 28.592 117.939 29.48C118.467 30.368 118.731 31.448 118.731 32.72ZM126.914 35.888C126.914 35.288 127.058 34.772 127.346 34.34C127.634 33.908 128.066 33.572 128.642 33.332C129.242 33.092 130.01 32.972 130.946 32.972C131.954 32.972 132.902 33.104 133.79 33.368C134.678 33.608 135.542 34.016 136.382 34.592V32.9C136.214 32.684 135.89 32.408 135.41 32.072C134.93 31.712 134.282 31.4 133.466 31.136C132.674 30.848 131.678 30.704 130.478 30.704C128.438 30.704 126.842 31.196 125.69 32.18C124.562 33.14 123.998 34.424 123.998 36.032C123.998 37.16 124.262 38.12 124.79 38.912C125.318 39.704 126.014 40.316 126.878 40.748C127.766 41.156 128.714 41.36 129.722 41.36C130.634 41.36 131.546 41.192 132.458 40.856C133.394 40.52 134.174 40.004 134.798 39.308C135.446 38.612 135.77 37.736 135.77 36.68L135.194 34.52C135.194 35.384 134.978 36.152 134.546 36.824C134.138 37.472 133.574 37.976 132.854 38.336C132.158 38.696 131.366 38.876 130.478 38.876C129.782 38.876 129.158 38.768 128.606 38.552C128.078 38.312 127.658 37.964 127.346 37.508C127.058 37.052 126.914 36.512 126.914 35.888ZM126.482 28.256C126.746 28.064 127.106 27.836 127.562 27.572C128.018 27.308 128.57 27.08 129.218 26.888C129.89 26.696 130.634 26.6 131.45 26.6C131.954 26.6 132.434 26.648 132.89 26.744C133.346 26.84 133.742 26.996 134.078 27.212C134.438 27.428 134.714 27.728 134.906 28.112C135.098 28.472 135.194 28.94 135.194 29.516V41H138.074V29.12C138.074 28.04 137.798 27.128 137.246 26.384C136.718 25.64 135.962 25.076 134.978 24.692C134.018 24.284 132.89 24.08 131.594 24.08C130.058 24.08 128.738 24.308 127.634 24.764C126.554 25.22 125.702 25.676 125.078 26.132L126.482 28.256ZM153.57 30.92V41H156.45V30.56C156.45 28.568 155.934 26.996 154.902 25.844C153.894 24.668 152.514 24.08 150.762 24.08C149.682 24.08 148.722 24.32 147.882 24.8C147.066 25.28 146.382 26.024 145.83 27.032V24.44H142.95V41H145.83V30.92C145.83 30.104 145.998 29.384 146.334 28.76C146.694 28.136 147.186 27.656 147.81 27.32C148.458 26.96 149.202 26.78 150.042 26.78C151.194 26.78 152.07 27.128 152.67 27.824C153.27 28.52 153.57 29.552 153.57 30.92ZM174.828 24.44H171.588L166.476 37.256L167.664 37.4L162.408 24.44H158.988L165.324 38.66L160.788 48.92H164.028L174.828 24.44Z" fill="white"/>
</svg>
