<svg width="610" height="39" viewBox="0 0 610 39" fill="none" xmlns="http://www.w3.org/2000/svg">
<g clip-path="url(#clip0_2_86)">
<path d="M0 0H124V38H0V0Z" fill="black"/>
<path d="M18.3591 22.04H25.8211V20.99H23.8191H23.5811H20.3191L23.0911 16.846V21.382V21.536V24H24.2811V14.2H23.7911L18.3591 22.04ZM31.5585 14.2V24H36.5985V22.88H32.7485V14.2H31.5585ZM39.223 21.06H44.403L43.983 19.94H39.643L39.223 21.06ZM41.785 16.412L43.465 20.36L43.577 20.64L45.005 24H46.335L41.785 13.71L37.235 24H38.565L40.021 20.556L40.133 20.304L41.785 16.412ZM54.9472 14.2V21.494L47.5272 13.71V24H48.7172V16.706L56.1372 24.49V14.2H54.9472ZM58.3827 14.2V24H59.5727V14.2H58.3827ZM61.3227 24C62.2747 24 63.1194 23.7947 63.8567 23.384C64.594 22.9733 65.1727 22.404 65.5927 21.676C66.0127 20.9387 66.2227 20.08 66.2227 19.1C66.2227 18.12 66.0127 17.266 65.5927 16.538C65.1727 15.8007 64.594 15.2267 63.8567 14.816C63.1194 14.4053 62.2747 14.2 61.3227 14.2H59.0407V15.39H61.3227C61.8734 15.39 62.3774 15.4787 62.8347 15.656C63.292 15.824 63.684 16.0713 64.0107 16.398C64.3374 16.7153 64.5894 17.1027 64.7667 17.56C64.944 18.0173 65.0327 18.5307 65.0327 19.1C65.0327 19.6693 64.944 20.1827 64.7667 20.64C64.5894 21.0973 64.3374 21.4893 64.0107 21.816C63.684 22.1333 63.292 22.3807 62.8347 22.558C62.3774 22.726 61.8734 22.81 61.3227 22.81H59.0407V24H61.3227ZM67.8983 14.2V24H69.0883V14.2H67.8983ZM78.75 14.2V21.494L71.33 13.71V24H72.52V16.706L79.94 24.49V14.2H78.75ZM86.7354 20.15H89.9974C89.9134 20.5327 89.7781 20.892 89.5914 21.228C89.4141 21.564 89.1854 21.8627 88.9054 22.124C88.6254 22.3853 88.2894 22.5907 87.8974 22.74C87.5148 22.88 87.0808 22.95 86.5954 22.95C85.9048 22.95 85.2794 22.7867 84.7194 22.46C84.1594 22.1333 83.7114 21.6807 83.3754 21.102C83.0488 20.5233 82.8854 19.856 82.8854 19.1C82.8854 18.3347 83.0488 17.6673 83.3754 17.098C83.7114 16.5193 84.1594 16.0667 84.7194 15.74C85.2794 15.4133 85.9048 15.25 86.5954 15.25C87.3421 15.25 87.9908 15.3993 88.5414 15.698C89.0921 15.9873 89.5214 16.3933 89.8294 16.916L90.6694 16.146C90.3894 15.6887 90.0441 15.306 89.6334 14.998C89.2321 14.69 88.7748 14.4567 88.2614 14.298C87.7574 14.1393 87.2021 14.06 86.5954 14.06C85.8861 14.06 85.2281 14.186 84.6214 14.438C84.0148 14.6807 83.4874 15.0307 83.0394 15.488C82.5914 15.936 82.2414 16.468 81.9894 17.084C81.7468 17.7 81.6254 18.372 81.6254 19.1C81.6254 19.828 81.7468 20.5 81.9894 21.116C82.2414 21.732 82.5914 22.2687 83.0394 22.726C83.4874 23.174 84.0148 23.524 84.6214 23.776C85.2281 24.0187 85.8861 24.14 86.5954 24.14C87.3421 24.14 88.0048 24.0047 88.5834 23.734C89.1714 23.454 89.6661 23.076 90.0674 22.6C90.4688 22.124 90.7721 21.5827 90.9774 20.976C91.1828 20.36 91.2854 19.7113 91.2854 19.03H86.7354V20.15Z" fill="white"/>
</g>
<g clip-path="url(#clip1_2_86)">
<path d="M134 0H241V38H134V0Z" fill="black"/>
<path d="M153.006 24H159.922V22.88H155.456L158.578 19.702C158.96 19.31 159.273 18.8667 159.516 18.372C159.758 17.8773 159.88 17.378 159.88 16.874C159.88 16.5753 159.819 16.2627 159.698 15.936C159.576 15.6093 159.39 15.306 159.138 15.026C158.886 14.7367 158.564 14.5033 158.172 14.326C157.78 14.1393 157.313 14.046 156.772 14.046C156.1 14.046 155.521 14.1953 155.036 14.494C154.56 14.7833 154.196 15.194 153.944 15.726C153.692 16.2487 153.566 16.86 153.566 17.56H154.756C154.756 17.0653 154.835 16.6407 154.994 16.286C155.152 15.922 155.381 15.6467 155.68 15.46C155.988 15.264 156.352 15.166 156.772 15.166C157.07 15.166 157.336 15.2173 157.57 15.32C157.803 15.4227 157.999 15.558 158.158 15.726C158.326 15.894 158.452 16.0807 158.536 16.286C158.62 16.4913 158.662 16.7013 158.662 16.916C158.662 17.1773 158.62 17.4293 158.536 17.672C158.461 17.9053 158.344 18.1387 158.186 18.372C158.036 18.596 157.854 18.8247 157.64 19.058L153.006 24ZM166.952 21.06H172.132L171.712 19.94H167.372L166.952 21.06ZM169.514 16.412L171.194 20.36L171.306 20.64L172.734 24H174.064L169.514 13.71L164.964 24H166.294L167.75 20.556L167.862 20.304L169.514 16.412ZM176.194 18.82H177.776C178.364 18.82 178.872 18.736 179.302 18.568C179.74 18.4 180.081 18.1527 180.324 17.826C180.566 17.4993 180.688 17.1073 180.688 16.65C180.688 16.09 180.566 15.6327 180.324 15.278C180.081 14.914 179.74 14.6433 179.302 14.466C178.872 14.2887 178.364 14.2 177.776 14.2H175.256V24H177.916C178.55 24 179.115 23.8973 179.61 23.692C180.114 23.4773 180.51 23.16 180.8 22.74C181.098 22.3107 181.248 21.774 181.248 21.13C181.248 20.682 181.164 20.2947 180.996 19.968C180.828 19.6413 180.59 19.3753 180.282 19.17C179.983 18.9553 179.633 18.7967 179.232 18.694C178.83 18.5913 178.392 18.54 177.916 18.54H176.194V19.198H177.916C178.233 19.198 178.522 19.24 178.784 19.324C179.045 19.3987 179.269 19.5153 179.456 19.674C179.652 19.8327 179.801 20.0287 179.904 20.262C180.006 20.4953 180.058 20.7613 180.058 21.06C180.058 21.4613 179.964 21.802 179.778 22.082C179.6 22.362 179.348 22.5767 179.022 22.726C178.704 22.8753 178.336 22.95 177.916 22.95H176.446V15.25H177.776C178.27 15.25 178.681 15.3807 179.008 15.642C179.334 15.894 179.498 16.2533 179.498 16.72C179.498 17.028 179.423 17.2893 179.274 17.504C179.124 17.7187 178.919 17.882 178.658 17.994C178.396 18.106 178.102 18.162 177.776 18.162H176.194V18.82ZM183.762 19.1C183.762 18.3627 183.921 17.7047 184.238 17.126C184.565 16.5473 185.008 16.09 185.568 15.754C186.128 15.418 186.763 15.25 187.472 15.25C188.191 15.25 188.826 15.418 189.376 15.754C189.936 16.09 190.375 16.5473 190.692 17.126C191.019 17.7047 191.182 18.3627 191.182 19.1C191.182 19.8373 191.019 20.4953 190.692 21.074C190.375 21.6527 189.936 22.11 189.376 22.446C188.826 22.782 188.191 22.95 187.472 22.95C186.763 22.95 186.128 22.782 185.568 22.446C185.008 22.11 184.565 21.6527 184.238 21.074C183.921 20.4953 183.762 19.8373 183.762 19.1ZM182.502 19.1C182.502 19.8093 182.624 20.472 182.866 21.088C183.118 21.704 183.468 22.2407 183.916 22.698C184.364 23.146 184.892 23.5007 185.498 23.762C186.105 24.014 186.763 24.14 187.472 24.14C188.191 24.14 188.849 24.014 189.446 23.762C190.053 23.5007 190.58 23.146 191.028 22.698C191.476 22.2407 191.822 21.704 192.064 21.088C192.316 20.472 192.442 19.8093 192.442 19.1C192.442 18.3813 192.316 17.7187 192.064 17.112C191.822 16.496 191.476 15.964 191.028 15.516C190.58 15.0587 190.053 14.704 189.446 14.452C188.849 14.1907 188.191 14.06 187.472 14.06C186.763 14.06 186.105 14.1907 185.498 14.452C184.892 14.704 184.364 15.0587 183.916 15.516C183.468 15.964 183.118 16.496 182.866 17.112C182.624 17.7187 182.502 18.3813 182.502 19.1ZM194.053 14.2V20.78C194.053 21.2653 194.128 21.7133 194.277 22.124C194.436 22.5347 194.66 22.8893 194.949 23.188C195.248 23.4867 195.602 23.72 196.013 23.888C196.424 24.056 196.881 24.14 197.385 24.14C197.889 24.14 198.346 24.056 198.757 23.888C199.168 23.72 199.518 23.4867 199.807 23.188C200.106 22.8893 200.33 22.5347 200.479 22.124C200.638 21.7133 200.717 21.2653 200.717 20.78V14.2H199.527V20.78C199.527 21.452 199.345 21.9933 198.981 22.404C198.617 22.8147 198.085 23.02 197.385 23.02C196.685 23.02 196.153 22.8147 195.789 22.404C195.425 21.9933 195.243 21.452 195.243 20.78V14.2H194.053ZM201.907 15.32H204.427V24H205.617V15.32H208.137V14.2H201.907V15.32Z" fill="white"/>
</g>
<g clip-path="url(#clip2_2_86)">
<path d="M251 0H379V38H251V0Z" fill="black"/>
<path d="M275.072 19.17C275.707 19.17 276.262 19.058 276.738 18.834C277.214 18.61 277.588 18.3067 277.858 17.924C278.129 17.5413 278.264 17.1213 278.264 16.664C278.264 16.1973 278.152 15.768 277.928 15.376C277.714 14.984 277.401 14.6667 276.99 14.424C276.589 14.1813 276.108 14.06 275.548 14.06C275.016 14.06 274.54 14.172 274.12 14.396C273.71 14.6107 273.383 14.9093 273.14 15.292C272.907 15.6747 272.79 16.1227 272.79 16.636H273.924C273.924 16.2067 274.083 15.852 274.4 15.572C274.718 15.2827 275.105 15.138 275.562 15.138C275.889 15.138 276.16 15.2033 276.374 15.334C276.598 15.4647 276.766 15.6513 276.878 15.894C276.99 16.1273 277.046 16.398 277.046 16.706C277.046 16.9393 277 17.1587 276.906 17.364C276.822 17.5693 276.696 17.7513 276.528 17.91C276.36 18.0593 276.155 18.1807 275.912 18.274C275.67 18.358 275.39 18.4 275.072 18.4V19.17ZM275.492 24.14C276.08 24.14 276.603 24.028 277.06 23.804C277.518 23.58 277.877 23.2627 278.138 22.852C278.409 22.4413 278.544 21.9607 278.544 21.41C278.544 20.9247 278.451 20.5093 278.264 20.164C278.087 19.8187 277.835 19.5387 277.508 19.324C277.191 19.1 276.822 18.9367 276.402 18.834C275.992 18.7313 275.548 18.68 275.072 18.68V19.45C275.39 19.45 275.684 19.4873 275.954 19.562C276.225 19.6367 276.463 19.7533 276.668 19.912C276.874 20.0613 277.032 20.2527 277.144 20.486C277.266 20.71 277.326 20.9713 277.326 21.27C277.326 21.6247 277.252 21.9327 277.102 22.194C276.953 22.4553 276.738 22.6607 276.458 22.81C276.188 22.95 275.866 23.02 275.492 23.02C275.119 23.02 274.788 22.95 274.498 22.81C274.209 22.67 273.98 22.4787 273.812 22.236C273.654 21.9933 273.574 21.718 273.574 21.41H272.37C272.37 21.7927 272.445 22.152 272.594 22.488C272.744 22.8147 272.954 23.104 273.224 23.356C273.495 23.5987 273.822 23.79 274.204 23.93C274.587 24.07 275.016 24.14 275.492 24.14ZM285.19 19.1C285.19 18.3347 285.358 17.6673 285.694 17.098C286.039 16.5193 286.487 16.0667 287.038 15.74C287.589 15.4133 288.186 15.25 288.83 15.25C289.297 15.25 289.721 15.3107 290.104 15.432C290.496 15.5533 290.851 15.726 291.168 15.95C291.485 16.1647 291.756 16.4167 291.98 16.706V15.138C291.569 14.774 291.121 14.5033 290.636 14.326C290.151 14.1487 289.549 14.06 288.83 14.06C288.149 14.06 287.509 14.186 286.912 14.438C286.324 14.6807 285.806 15.0307 285.358 15.488C284.91 15.936 284.56 16.468 284.308 17.084C284.056 17.7 283.93 18.372 283.93 19.1C283.93 19.828 284.056 20.5 284.308 21.116C284.56 21.732 284.91 22.2687 285.358 22.726C285.806 23.174 286.324 23.524 286.912 23.776C287.509 24.0187 288.149 24.14 288.83 24.14C289.549 24.14 290.151 24.0513 290.636 23.874C291.121 23.6967 291.569 23.426 291.98 23.062V21.494C291.756 21.7833 291.485 22.04 291.168 22.264C290.851 22.4787 290.496 22.6467 290.104 22.768C289.721 22.8893 289.297 22.95 288.83 22.95C288.186 22.95 287.589 22.7867 287.038 22.46C286.487 22.1333 286.039 21.6807 285.694 21.102C285.358 20.5233 285.19 19.856 285.19 19.1ZM294.774 19.1C294.774 18.3627 294.933 17.7047 295.25 17.126C295.577 16.5473 296.02 16.09 296.58 15.754C297.14 15.418 297.775 15.25 298.484 15.25C299.203 15.25 299.837 15.418 300.388 15.754C300.948 16.09 301.387 16.5473 301.704 17.126C302.031 17.7047 302.194 18.3627 302.194 19.1C302.194 19.8373 302.031 20.4953 301.704 21.074C301.387 21.6527 300.948 22.11 300.388 22.446C299.837 22.782 299.203 22.95 298.484 22.95C297.775 22.95 297.14 22.782 296.58 22.446C296.02 22.11 295.577 21.6527 295.25 21.074C294.933 20.4953 294.774 19.8373 294.774 19.1ZM293.514 19.1C293.514 19.8093 293.635 20.472 293.878 21.088C294.13 21.704 294.48 22.2407 294.928 22.698C295.376 23.146 295.903 23.5007 296.51 23.762C297.117 24.014 297.775 24.14 298.484 24.14C299.203 24.14 299.861 24.014 300.458 23.762C301.065 23.5007 301.592 23.146 302.04 22.698C302.488 22.2407 302.833 21.704 303.076 21.088C303.328 20.472 303.454 19.8093 303.454 19.1C303.454 18.3813 303.328 17.7187 303.076 17.112C302.833 16.496 302.488 15.964 302.04 15.516C301.592 15.0587 301.065 14.704 300.458 14.452C299.861 14.1907 299.203 14.06 298.484 14.06C297.775 14.06 297.117 14.1907 296.51 14.452C295.903 14.704 295.376 15.0587 294.928 15.516C294.48 15.964 294.13 16.496 293.878 17.112C293.635 17.7187 293.514 18.3813 293.514 19.1ZM312.555 14.2V21.494L305.135 13.71V24H306.325V16.706L313.745 24.49V14.2H312.555ZM315.01 15.32H317.53V24H318.72V15.32H321.24V14.2H315.01V15.32ZM322.041 21.06H327.221L326.801 19.94H322.461L322.041 21.06ZM324.603 16.412L326.283 20.36L326.395 20.64L327.823 24H329.153L324.603 13.71L320.053 24H321.383L322.839 20.556L322.951 20.304L324.603 16.412ZM330.622 19.1C330.622 18.3347 330.79 17.6673 331.126 17.098C331.471 16.5193 331.919 16.0667 332.47 15.74C333.02 15.4133 333.618 15.25 334.262 15.25C334.728 15.25 335.153 15.3107 335.536 15.432C335.928 15.5533 336.282 15.726 336.6 15.95C336.917 16.1647 337.188 16.4167 337.412 16.706V15.138C337.001 14.774 336.553 14.5033 336.068 14.326C335.582 14.1487 334.98 14.06 334.262 14.06C333.58 14.06 332.941 14.186 332.344 14.438C331.756 14.6807 331.238 15.0307 330.79 15.488C330.342 15.936 329.992 16.468 329.74 17.084C329.488 17.7 329.362 18.372 329.362 19.1C329.362 19.828 329.488 20.5 329.74 21.116C329.992 21.732 330.342 22.2687 330.79 22.726C331.238 23.174 331.756 23.524 332.344 23.776C332.941 24.0187 333.58 24.14 334.262 24.14C334.98 24.14 335.582 24.0513 336.068 23.874C336.553 23.6967 337.001 23.426 337.412 23.062V21.494C337.188 21.7833 336.917 22.04 336.6 22.264C336.282 22.4787 335.928 22.6467 335.536 22.768C335.153 22.8893 334.728 22.95 334.262 22.95C333.618 22.95 333.02 22.7867 332.47 22.46C331.919 22.1333 331.471 21.6807 331.126 21.102C330.79 20.5233 330.622 19.856 330.622 19.1ZM338.102 15.32H340.622V24H341.812V15.32H344.332V14.2H338.102V15.32Z" fill="white"/>
</g>
<defs>
<clipPath id="clip0_2_86">
<rect width="124" height="38" fill="white"/>
</clipPath>
<clipPath id="clip1_2_86">
<rect width="107" height="38" fill="white" transform="translate(134)"/>
</clipPath>
<clipPath id="clip2_2_86">
<rect width="128" height="38" fill="white" transform="translate(251)"/>
</clipPath>
</defs>
</svg>
