<svg width="610" height="39" viewBox="0 0 610 39" fill="none" xmlns="http://www.w3.org/2000/svg">
<g clip-path="url(#clip0_2_103)">
<path d="M0 0H96V38H0V0Z" fill="black"/>
<path d="M26.7727 21.41L23.8607 13.71L21.0047 21.41L18.4007 14.2H17.0707L20.9207 24.49L23.8607 16.874L26.8007 24.49L30.6507 14.2H29.3207L26.7727 21.41ZM32.4089 19.1C32.4089 18.3627 32.5675 17.7047 32.8849 17.126C33.2115 16.5473 33.6549 16.09 34.2149 15.754C34.7749 15.418 35.4095 15.25 36.1189 15.25C36.8375 15.25 37.4722 15.418 38.0229 15.754C38.5829 16.09 39.0215 16.5473 39.3389 17.126C39.6655 17.7047 39.8289 18.3627 39.8289 19.1C39.8289 19.8373 39.6655 20.4953 39.3389 21.074C39.0215 21.6527 38.5829 22.11 38.0229 22.446C37.4722 22.782 36.8375 22.95 36.1189 22.95C35.4095 22.95 34.7749 22.782 34.2149 22.446C33.6549 22.11 33.2115 21.6527 32.8849 21.074C32.5675 20.4953 32.4089 19.8373 32.4089 19.1ZM31.1489 19.1C31.1489 19.8093 31.2702 20.472 31.5129 21.088C31.7649 21.704 32.1149 22.2407 32.5629 22.698C33.0109 23.146 33.5382 23.5007 34.1449 23.762C34.7515 24.014 35.4095 24.14 36.1189 24.14C36.8375 24.14 37.4955 24.014 38.0929 23.762C38.6995 23.5007 39.2269 23.146 39.6749 22.698C40.1229 22.2407 40.4682 21.704 40.7109 21.088C40.9629 20.472 41.0889 19.8093 41.0889 19.1C41.0889 18.3813 40.9629 17.7187 40.7109 17.112C40.4682 16.496 40.1229 15.964 39.6749 15.516C39.2269 15.0587 38.6995 14.704 38.0929 14.452C37.4955 14.1907 36.8375 14.06 36.1189 14.06C35.4095 14.06 34.7515 14.1907 34.1449 14.452C33.5382 14.704 33.0109 15.0587 32.5629 15.516C32.1149 15.964 31.7649 16.496 31.5129 17.112C31.2702 17.7187 31.1489 18.3813 31.1489 19.1ZM44.5194 19.17L47.8794 24H49.3494L45.8494 19.17H44.5194ZM42.7694 14.2V24H43.9594V14.2H42.7694ZM43.4274 15.25H45.4294C45.8494 15.25 46.2181 15.3247 46.5354 15.474C46.8621 15.6233 47.1141 15.838 47.2914 16.118C47.4781 16.398 47.5714 16.7387 47.5714 17.14C47.5714 17.5413 47.4781 17.882 47.2914 18.162C47.1141 18.442 46.8621 18.6567 46.5354 18.806C46.2181 18.9553 45.8494 19.03 45.4294 19.03H43.4274V20.08H45.4294C46.0641 20.08 46.6287 19.9633 47.1234 19.73C47.6274 19.4873 48.0241 19.1467 48.3134 18.708C48.6121 18.26 48.7614 17.7373 48.7614 17.14C48.7614 16.5333 48.6121 16.0107 48.3134 15.572C48.0241 15.1333 47.6274 14.7973 47.1234 14.564C46.6287 14.3213 46.0641 14.2 45.4294 14.2H43.4274V15.25ZM50.6034 14.2V24H51.7934V14.2H50.6034ZM55.6434 14.2L51.4294 18.82L55.8534 24H57.3234L52.8714 18.792L57.1134 14.2H55.6434ZM58.8834 21.032L57.9314 21.676C58.1461 22.1053 58.4214 22.5113 58.7574 22.894C59.1027 23.2673 59.4994 23.5707 59.9474 23.804C60.4047 24.028 60.8994 24.14 61.4314 24.14C61.8234 24.14 62.1967 24.0747 62.5514 23.944C62.9154 23.8133 63.2374 23.6267 63.5174 23.384C63.8067 23.1413 64.0307 22.8473 64.1894 22.502C64.3574 22.1567 64.4414 21.7693 64.4414 21.34C64.4414 20.892 64.3621 20.5093 64.2034 20.192C64.0447 19.8653 63.8394 19.59 63.5874 19.366C63.3447 19.1327 63.0787 18.9413 62.7894 18.792C62.5001 18.6427 62.2247 18.5213 61.9634 18.428C61.3941 18.232 60.9414 18.036 60.6054 17.84C60.2787 17.6347 60.0454 17.42 59.9054 17.196C59.7654 16.9627 59.6954 16.7107 59.6954 16.44C59.6954 16.1227 59.8167 15.838 60.0594 15.586C60.3021 15.3247 60.6894 15.194 61.2214 15.194C61.6041 15.194 61.9261 15.2687 62.1874 15.418C62.4581 15.5673 62.6867 15.7587 62.8734 15.992C63.0601 16.2253 63.2141 16.4633 63.3354 16.706L64.3574 16.118C64.1987 15.7727 63.9794 15.446 63.6994 15.138C63.4194 14.8207 63.0787 14.564 62.6774 14.368C62.2854 14.1627 61.8234 14.06 61.2914 14.06C60.7407 14.06 60.2507 14.172 59.8214 14.396C59.3921 14.6107 59.0561 14.9093 58.8134 15.292C58.5707 15.6747 58.4494 16.1087 58.4494 16.594C58.4494 17.042 58.5334 17.42 58.7014 17.728C58.8787 18.036 59.1027 18.2973 59.3734 18.512C59.6441 18.7173 59.9287 18.89 60.2274 19.03C60.5261 19.1607 60.7967 19.268 61.0394 19.352C61.4127 19.4827 61.7627 19.632 62.0894 19.8C62.4254 19.9587 62.6961 20.1687 62.9014 20.43C63.1067 20.6913 63.2094 21.0413 63.2094 21.48C63.2094 21.928 63.0507 22.2967 62.7334 22.586C62.4161 22.8753 61.9961 23.02 61.4734 23.02C61.0814 23.02 60.7314 22.936 60.4234 22.768C60.1154 22.6 59.8354 22.3667 59.5834 22.068C59.3407 21.7693 59.1074 21.424 58.8834 21.032Z" fill="white"/>
</g>
<g clip-path="url(#clip1_2_103)">
<path d="M106 0H191V38H106V0Z" fill="black"/>
<path d="M124.249 15.32H126.769V24H127.959V15.32H130.479V14.2H124.249V15.32ZM132.395 24H137.337V22.88H132.395V24ZM132.395 15.32H137.337V14.2H132.395V15.32ZM132.395 19.24H137.057V18.12H132.395V19.24ZM131.737 14.2V24H132.927V14.2H131.737ZM140.372 21.06H145.552L145.132 19.94H140.792L140.372 21.06ZM142.934 16.412L144.614 20.36L144.726 20.64L146.154 24H147.484L142.934 13.71L138.384 24H139.714L141.17 20.556L141.282 20.304L142.934 16.412ZM150.035 17.378L153.227 23.09L156.419 17.378L157.147 24H158.337L157.147 13.71L153.227 20.808L149.307 13.71L148.117 24H149.307L150.035 17.378Z" fill="white"/>
</g>
<g clip-path="url(#clip2_2_103)">
<path d="M201 0H307V38H201V0Z" fill="black"/>
<path d="M220.143 19.1C220.143 18.3347 220.311 17.6673 220.647 17.098C220.993 16.5193 221.441 16.0667 221.991 15.74C222.542 15.4133 223.139 15.25 223.783 15.25C224.25 15.25 224.675 15.3107 225.057 15.432C225.449 15.5533 225.804 15.726 226.121 15.95C226.439 16.1647 226.709 16.4167 226.933 16.706V15.138C226.523 14.774 226.075 14.5033 225.589 14.326C225.104 14.1487 224.502 14.06 223.783 14.06C223.102 14.06 222.463 14.186 221.865 14.438C221.277 14.6807 220.759 15.0307 220.311 15.488C219.863 15.936 219.513 16.468 219.261 17.084C219.009 17.7 218.883 18.372 218.883 19.1C218.883 19.828 219.009 20.5 219.261 21.116C219.513 21.732 219.863 22.2687 220.311 22.726C220.759 23.174 221.277 23.524 221.865 23.776C222.463 24.0187 223.102 24.14 223.783 24.14C224.502 24.14 225.104 24.0513 225.589 23.874C226.075 23.6967 226.523 23.426 226.933 23.062V21.494C226.709 21.7833 226.439 22.04 226.121 22.264C225.804 22.4787 225.449 22.6467 225.057 22.768C224.675 22.8893 224.25 22.95 223.783 22.95C223.139 22.95 222.542 22.7867 221.991 22.46C221.441 22.1333 220.993 21.6807 220.647 21.102C220.311 20.5233 220.143 19.856 220.143 19.1ZM229.76 21.06H234.94L234.52 19.94H230.18L229.76 21.06ZM232.322 16.412L234.002 20.36L234.114 20.64L235.542 24H236.872L232.322 13.71L227.772 24H229.102L230.558 20.556L230.67 20.304L232.322 16.412ZM239.814 19.17L243.174 24H244.644L241.144 19.17H239.814ZM238.064 14.2V24H239.254V14.2H238.064ZM238.722 15.25H240.724C241.144 15.25 241.513 15.3247 241.83 15.474C242.157 15.6233 242.409 15.838 242.586 16.118C242.773 16.398 242.866 16.7387 242.866 17.14C242.866 17.5413 242.773 17.882 242.586 18.162C242.409 18.442 242.157 18.6567 241.83 18.806C241.513 18.9553 241.144 19.03 240.724 19.03H238.722V20.08H240.724C241.359 20.08 241.924 19.9633 242.418 19.73C242.922 19.4873 243.319 19.1467 243.608 18.708C243.907 18.26 244.056 17.7373 244.056 17.14C244.056 16.5333 243.907 16.0107 243.608 15.572C243.319 15.1333 242.922 14.7973 242.418 14.564C241.924 14.3213 241.359 14.2 240.724 14.2H238.722V15.25ZM246.556 24H251.498V22.88H246.556V24ZM246.556 15.32H251.498V14.2H246.556V15.32ZM246.556 19.24H251.218V18.12H246.556V19.24ZM245.898 14.2V24H247.088V14.2H245.898ZM254.254 24H259.196V22.88H254.254V24ZM254.254 15.32H259.196V14.2H254.254V15.32ZM254.254 19.24H258.916V18.12H254.254V19.24ZM253.596 14.2V24H254.786V14.2H253.596ZM263.043 19.17L266.403 24H267.873L264.373 19.17H263.043ZM261.293 14.2V24H262.483V14.2H261.293ZM261.951 15.25H263.953C264.373 15.25 264.742 15.3247 265.059 15.474C265.386 15.6233 265.638 15.838 265.815 16.118C266.002 16.398 266.095 16.7387 266.095 17.14C266.095 17.5413 266.002 17.882 265.815 18.162C265.638 18.442 265.386 18.6567 265.059 18.806C264.742 18.9553 264.373 19.03 263.953 19.03H261.951V20.08H263.953C264.588 20.08 265.152 19.9633 265.647 19.73C266.151 19.4873 266.548 19.1467 266.837 18.708C267.136 18.26 267.285 17.7373 267.285 17.14C267.285 16.5333 267.136 16.0107 266.837 15.572C266.548 15.1333 266.151 14.7973 265.647 14.564C265.152 14.3213 264.588 14.2 263.953 14.2H261.951V15.25ZM269.491 21.032L268.539 21.676C268.754 22.1053 269.029 22.5113 269.365 22.894C269.71 23.2673 270.107 23.5707 270.555 23.804C271.012 24.028 271.507 24.14 272.039 24.14C272.431 24.14 272.804 24.0747 273.159 23.944C273.523 23.8133 273.845 23.6267 274.125 23.384C274.414 23.1413 274.638 22.8473 274.797 22.502C274.965 22.1567 275.049 21.7693 275.049 21.34C275.049 20.892 274.97 20.5093 274.811 20.192C274.652 19.8653 274.447 19.59 274.195 19.366C273.952 19.1327 273.686 18.9413 273.397 18.792C273.108 18.6427 272.832 18.5213 272.571 18.428C272.002 18.232 271.549 18.036 271.213 17.84C270.886 17.6347 270.653 17.42 270.513 17.196C270.373 16.9627 270.303 16.7107 270.303 16.44C270.303 16.1227 270.424 15.838 270.667 15.586C270.91 15.3247 271.297 15.194 271.829 15.194C272.212 15.194 272.534 15.2687 272.795 15.418C273.066 15.5673 273.294 15.7587 273.481 15.992C273.668 16.2253 273.822 16.4633 273.943 16.706L274.965 16.118C274.806 15.7727 274.587 15.446 274.307 15.138C274.027 14.8207 273.686 14.564 273.285 14.368C272.893 14.1627 272.431 14.06 271.899 14.06C271.348 14.06 270.858 14.172 270.429 14.396C270 14.6107 269.664 14.9093 269.421 15.292C269.178 15.6747 269.057 16.1087 269.057 16.594C269.057 17.042 269.141 17.42 269.309 17.728C269.486 18.036 269.71 18.2973 269.981 18.512C270.252 18.7173 270.536 18.89 270.835 19.03C271.134 19.1607 271.404 19.268 271.647 19.352C272.02 19.4827 272.37 19.632 272.697 19.8C273.033 19.9587 273.304 20.1687 273.509 20.43C273.714 20.6913 273.817 21.0413 273.817 21.48C273.817 21.928 273.658 22.2967 273.341 22.586C273.024 22.8753 272.604 23.02 272.081 23.02C271.689 23.02 271.339 22.936 271.031 22.768C270.723 22.6 270.443 22.3667 270.191 22.068C269.948 21.7693 269.715 21.424 269.491 21.032Z" fill="white"/>
</g>
<defs>
<clipPath id="clip0_2_103">
<rect width="96" height="38" fill="white"/>
</clipPath>
<clipPath id="clip1_2_103">
<rect width="85" height="38" fill="white" transform="translate(106)"/>
</clipPath>
<clipPath id="clip2_2_103">
<rect width="106" height="38" fill="white" transform="translate(201)"/>
</clipPath>
</defs>
</svg>
