<svg width="610" height="39" viewBox="0 0 610 39" fill="none" xmlns="http://www.w3.org/2000/svg">
<g clip-path="url(#clip0_2_113)">
<path d="M0 0H93V38H0V0Z" fill="black"/>
<path d="M18.8288 15.32H23.2108V14.2H18.8288V15.32ZM18.8288 19.24H23.0708V18.12H18.8288V19.24ZM18.1708 14.2V24H19.3608V14.2H18.1708ZM25.8708 19.1C25.8708 18.3627 26.0294 17.7047 26.3468 17.126C26.6734 16.5473 27.1168 16.09 27.6768 15.754C28.2368 15.418 28.8714 15.25 29.5808 15.25C30.2994 15.25 30.9341 15.418 31.4848 15.754C32.0448 16.09 32.4834 16.5473 32.8008 17.126C33.1274 17.7047 33.2908 18.3627 33.2908 19.1C33.2908 19.8373 33.1274 20.4953 32.8008 21.074C32.4834 21.6527 32.0448 22.11 31.4848 22.446C30.9341 22.782 30.2994 22.95 29.5808 22.95C28.8714 22.95 28.2368 22.782 27.6768 22.446C27.1168 22.11 26.6734 21.6527 26.3468 21.074C26.0294 20.4953 25.8708 19.8373 25.8708 19.1ZM24.6108 19.1C24.6108 19.8093 24.7321 20.472 24.9748 21.088C25.2268 21.704 25.5768 22.2407 26.0248 22.698C26.4728 23.146 27.0001 23.5007 27.6068 23.762C28.2134 24.014 28.8714 24.14 29.5808 24.14C30.2994 24.14 30.9574 24.014 31.5548 23.762C32.1614 23.5007 32.6888 23.146 33.1368 22.698C33.5848 22.2407 33.9301 21.704 34.1728 21.088C34.4248 20.472 34.5508 19.8093 34.5508 19.1C34.5508 18.3813 34.4248 17.7187 34.1728 17.112C33.9301 16.496 33.5848 15.964 33.1368 15.516C32.6888 15.0587 32.1614 14.704 31.5548 14.452C30.9574 14.1907 30.2994 14.06 29.5808 14.06C28.8714 14.06 28.2134 14.1907 27.6068 14.452C27.0001 14.704 26.4728 15.0587 26.0248 15.516C25.5768 15.964 25.2268 16.496 24.9748 17.112C24.7321 17.7187 24.6108 18.3813 24.6108 19.1ZM37.9813 19.17L41.3413 24H42.8113L39.3113 19.17H37.9813ZM36.2313 14.2V24H37.4213V14.2H36.2313ZM36.8893 15.25H38.8913C39.3113 15.25 39.68 15.3247 39.9973 15.474C40.324 15.6233 40.576 15.838 40.7533 16.118C40.94 16.398 41.0333 16.7387 41.0333 17.14C41.0333 17.5413 40.94 17.882 40.7533 18.162C40.576 18.442 40.324 18.6567 39.9973 18.806C39.68 18.9553 39.3113 19.03 38.8913 19.03H36.8893V20.08H38.8913C39.526 20.08 40.0907 19.9633 40.5853 19.73C41.0893 19.4873 41.486 19.1467 41.7753 18.708C42.074 18.26 42.2233 17.7373 42.2233 17.14C42.2233 16.5333 42.074 16.0107 41.7753 15.572C41.486 15.1333 41.0893 14.7973 40.5853 14.564C40.0907 14.3213 39.526 14.2 38.8913 14.2H36.8893V15.25ZM45.4233 17.378L48.6153 23.09L51.8073 17.378L52.5353 24H53.7253L52.5353 13.71L48.6153 20.808L44.6953 13.71L43.5053 24H44.6953L45.4233 17.378ZM55.7633 21.032L54.8113 21.676C55.026 22.1053 55.3013 22.5113 55.6373 22.894C55.9826 23.2673 56.3793 23.5707 56.8273 23.804C57.2846 24.028 57.7793 24.14 58.3113 24.14C58.7033 24.14 59.0766 24.0747 59.4313 23.944C59.7953 23.8133 60.1173 23.6267 60.3973 23.384C60.6866 23.1413 60.9106 22.8473 61.0693 22.502C61.2373 22.1567 61.3213 21.7693 61.3213 21.34C61.3213 20.892 61.242 20.5093 61.0833 20.192C60.9246 19.8653 60.7193 19.59 60.4673 19.366C60.2246 19.1327 59.9586 18.9413 59.6693 18.792C59.38 18.6427 59.1046 18.5213 58.8433 18.428C58.274 18.232 57.8213 18.036 57.4853 17.84C57.1586 17.6347 56.9253 17.42 56.7853 17.196C56.6453 16.9627 56.5753 16.7107 56.5753 16.44C56.5753 16.1227 56.6966 15.838 56.9393 15.586C57.182 15.3247 57.5693 15.194 58.1013 15.194C58.484 15.194 58.806 15.2687 59.0673 15.418C59.338 15.5673 59.5666 15.7587 59.7533 15.992C59.94 16.2253 60.094 16.4633 60.2153 16.706L61.2373 16.118C61.0786 15.7727 60.8593 15.446 60.5793 15.138C60.2993 14.8207 59.9586 14.564 59.5573 14.368C59.1653 14.1627 58.7033 14.06 58.1713 14.06C57.6206 14.06 57.1306 14.172 56.7013 14.396C56.272 14.6107 55.936 14.9093 55.6933 15.292C55.4506 15.6747 55.3293 16.1087 55.3293 16.594C55.3293 17.042 55.4133 17.42 55.5813 17.728C55.7586 18.036 55.9826 18.2973 56.2533 18.512C56.524 18.7173 56.8086 18.89 57.1073 19.03C57.406 19.1607 57.6766 19.268 57.9193 19.352C58.2926 19.4827 58.6426 19.632 58.9693 19.8C59.3053 19.9587 59.576 20.1687 59.7813 20.43C59.9866 20.6913 60.0893 21.0413 60.0893 21.48C60.0893 21.928 59.9306 22.2967 59.6133 22.586C59.296 22.8753 58.876 23.02 58.3533 23.02C57.9613 23.02 57.6113 22.936 57.3033 22.768C56.9953 22.6 56.7153 22.3667 56.4633 22.068C56.2206 21.7693 55.9873 21.424 55.7633 21.032Z" fill="white"/>
</g>
<g clip-path="url(#clip1_2_113)">
<path d="M103 0H199V38H103V0Z" fill="black"/>
<path d="M123.442 14.2V20.78C123.442 21.2653 123.516 21.7133 123.666 22.124C123.824 22.5347 124.048 22.8893 124.338 23.188C124.636 23.4867 124.991 23.72 125.402 23.888C125.812 24.056 126.27 24.14 126.774 24.14C127.278 24.14 127.735 24.056 128.146 23.888C128.556 23.72 128.906 23.4867 129.196 23.188C129.494 22.8893 129.718 22.5347 129.868 22.124C130.026 21.7133 130.106 21.2653 130.106 20.78V14.2H128.916V20.78C128.916 21.452 128.734 21.9933 128.37 22.404C128.006 22.8147 127.474 23.02 126.774 23.02C126.074 23.02 125.542 22.8147 125.178 22.404C124.814 21.9933 124.632 21.452 124.632 20.78V14.2H123.442ZM131.295 15.32H133.815V24H135.005V15.32H137.525V14.2H131.295V15.32ZM138.783 14.2V24H139.973V14.2H138.783ZM142.215 14.2V24H147.255V22.88H143.405V14.2H142.215ZM148.517 14.2V24H149.707V14.2H148.517ZM150.969 15.32H153.489V24H154.679V15.32H157.199V14.2H150.969V15.32ZM164.215 14.2L161.681 18.736L159.161 14.2H157.831L161.093 19.786V24H162.283V19.772L165.545 14.2H164.215Z" fill="white"/>
</g>
<defs>
<clipPath id="clip0_2_113">
<rect width="93" height="38" fill="white"/>
</clipPath>
<clipPath id="clip1_2_113">
<rect width="96" height="38" fill="white" transform="translate(103)"/>
</clipPath>
</defs>
</svg>
