<svg width="431" height="65" viewBox="0 0 431 65" fill="none" xmlns="http://www.w3.org/2000/svg">
<path d="M0 0H431V65H0V0Z" fill="black"/>
<path d="M32.88 15.8V41H45.84V38.12H35.94V15.8H32.88ZM52.5889 33.44H65.9089L64.8289 30.56H53.6689L52.5889 33.44ZM59.1769 21.488L63.4969 31.64L63.7849 32.36L67.4569 41H70.8769L59.1769 14.54L47.4769 41H50.8969L54.6409 32.144L54.9289 31.496L59.1769 21.488ZM93.0225 15.8V34.556L73.9425 14.54V41H77.0025V22.244L96.0825 42.26V15.8H93.0225ZM101.857 15.8V41H104.917V15.8H101.857ZM109.417 41C111.865 41 114.037 40.472 115.933 39.416C117.829 38.36 119.317 36.896 120.397 35.024C121.477 33.128 122.017 30.92 122.017 28.4C122.017 25.88 121.477 23.684 120.397 21.812C119.317 19.916 117.829 18.44 115.933 17.384C114.037 16.328 111.865 15.8 109.417 15.8H103.549V18.86H109.417C110.833 18.86 112.129 19.088 113.305 19.544C114.481 19.976 115.489 20.612 116.329 21.452C117.169 22.268 117.817 23.264 118.273 24.44C118.729 25.616 118.957 26.936 118.957 28.4C118.957 29.864 118.729 31.184 118.273 32.36C117.817 33.536 117.169 34.544 116.329 35.384C115.489 36.2 114.481 36.836 113.305 37.292C112.129 37.724 110.833 37.94 109.417 37.94H103.549V41H109.417ZM126.325 15.8V41H129.385V15.8H126.325ZM154.23 15.8V34.556L135.15 14.54V41H138.21V22.244L157.29 42.26V15.8H154.23ZM174.764 31.1H183.152C182.936 32.084 182.588 33.008 182.108 33.872C181.652 34.736 181.064 35.504 180.344 36.176C179.624 36.848 178.76 37.376 177.752 37.76C176.768 38.12 175.652 38.3 174.404 38.3C172.628 38.3 171.02 37.88 169.58 37.04C168.14 36.2 166.988 35.036 166.124 33.548C165.284 32.06 164.864 30.344 164.864 28.4C164.864 26.432 165.284 24.716 166.124 23.252C166.988 21.764 168.14 20.6 169.58 19.76C171.02 18.92 172.628 18.5 174.404 18.5C176.324 18.5 177.992 18.884 179.408 19.652C180.824 20.396 181.928 21.44 182.72 22.784L184.88 20.804C184.16 19.628 183.272 18.644 182.216 17.852C181.184 17.06 180.008 16.46 178.688 16.052C177.392 15.644 175.964 15.44 174.404 15.44C172.58 15.44 170.888 15.764 169.328 16.412C167.768 17.036 166.412 17.936 165.26 19.112C164.108 20.264 163.208 21.632 162.56 23.216C161.936 24.8 161.624 26.528 161.624 28.4C161.624 30.272 161.936 32 162.56 33.584C163.208 35.168 164.108 36.548 165.26 37.724C166.412 38.876 167.768 39.776 169.328 40.424C170.888 41.048 172.58 41.36 174.404 41.36C176.324 41.36 178.028 41.012 179.516 40.316C181.028 39.596 182.3 38.624 183.332 37.4C184.364 36.176 185.144 34.784 185.672 33.224C186.2 31.64 186.464 29.972 186.464 28.22H174.764V31.1ZM201.771 15.8V41H204.831V15.8H201.771ZM203.463 18.68H208.611C210.243 18.68 211.563 19.076 212.571 19.868C213.603 20.636 214.119 21.8 214.119 23.36C214.119 24.896 213.603 26.06 212.571 26.852C211.563 27.644 210.243 28.04 208.611 28.04H203.463V30.92H208.611C210.243 30.92 211.695 30.62 212.967 30.02C214.263 29.396 215.283 28.52 216.027 27.392C216.795 26.24 217.179 24.896 217.179 23.36C217.179 21.8 216.795 20.456 216.027 19.328C215.283 18.2 214.263 17.336 212.967 16.736C211.695 16.112 210.243 15.8 208.611 15.8H203.463V18.68ZM221.374 33.44H234.694L233.614 30.56H222.454L221.374 33.44ZM227.962 21.488L232.282 31.64L232.57 32.36L236.242 41H239.662L227.962 14.54L216.262 41H219.682L223.426 32.144L223.714 31.496L227.962 21.488ZM253.338 31.1H261.726C261.51 32.084 261.162 33.008 260.682 33.872C260.226 34.736 259.638 35.504 258.918 36.176C258.198 36.848 257.334 37.376 256.326 37.76C255.342 38.12 254.226 38.3 252.978 38.3C251.202 38.3 249.594 37.88 248.154 37.04C246.714 36.2 245.562 35.036 244.698 33.548C243.858 32.06 243.438 30.344 243.438 28.4C243.438 26.432 243.858 24.716 244.698 23.252C245.562 21.764 246.714 20.6 248.154 19.76C249.594 18.92 251.202 18.5 252.978 18.5C254.898 18.5 256.566 18.884 257.982 19.652C259.398 20.396 260.502 21.44 261.294 22.784L263.454 20.804C262.734 19.628 261.846 18.644 260.79 17.852C259.758 17.06 258.582 16.46 257.262 16.052C255.966 15.644 254.538 15.44 252.978 15.44C251.154 15.44 249.462 15.764 247.902 16.412C246.342 17.036 244.986 17.936 243.834 19.112C242.682 20.264 241.782 21.632 241.134 23.216C240.51 24.8 240.198 26.528 240.198 28.4C240.198 30.272 240.51 32 241.134 33.584C241.782 35.168 242.682 36.548 243.834 37.724C244.986 38.876 246.342 39.776 247.902 40.424C249.462 41.048 251.154 41.36 252.978 41.36C254.898 41.36 256.602 41.012 258.09 40.316C259.602 39.596 260.874 38.624 261.906 37.4C262.938 36.176 263.718 34.784 264.246 33.224C264.774 31.64 265.038 29.972 265.038 28.22H253.338V31.1ZM271.244 41H283.952V38.12H271.244V41ZM271.244 18.68H283.952V15.8H271.244V18.68ZM271.244 28.76H283.232V25.88H271.244V28.76ZM269.552 15.8V41H272.612V15.8H269.552ZM290.281 33.368L287.833 35.024C288.385 36.128 289.093 37.172 289.957 38.156C290.845 39.116 291.865 39.896 293.017 40.496C294.193 41.072 295.465 41.36 296.833 41.36C297.841 41.36 298.801 41.192 299.713 40.856C300.649 40.52 301.477 40.04 302.197 39.416C302.941 38.792 303.517 38.036 303.925 37.148C304.357 36.26 304.573 35.264 304.573 34.16C304.573 33.008 304.369 32.024 303.961 31.208C303.553 30.368 303.025 29.66 302.377 29.084C301.753 28.484 301.069 27.992 300.325 27.608C299.581 27.224 298.873 26.912 298.201 26.672C296.737 26.168 295.573 25.664 294.709 25.16C293.869 24.632 293.269 24.08 292.909 23.504C292.549 22.904 292.369 22.256 292.369 21.56C292.369 20.744 292.681 20.012 293.305 19.364C293.929 18.692 294.925 18.356 296.293 18.356C297.277 18.356 298.105 18.548 298.777 18.932C299.473 19.316 300.061 19.808 300.541 20.408C301.021 21.008 301.417 21.62 301.729 22.244L304.357 20.732C303.949 19.844 303.385 19.004 302.665 18.212C301.945 17.396 301.069 16.736 300.037 16.232C299.029 15.704 297.841 15.44 296.473 15.44C295.057 15.44 293.797 15.728 292.693 16.304C291.589 16.856 290.725 17.624 290.101 18.608C289.477 19.592 289.165 20.708 289.165 21.956C289.165 23.108 289.381 24.08 289.813 24.872C290.269 25.664 290.845 26.336 291.541 26.888C292.237 27.416 292.969 27.86 293.737 28.22C294.505 28.556 295.201 28.832 295.825 29.048C296.785 29.384 297.685 29.768 298.525 30.2C299.389 30.608 300.085 31.148 300.613 31.82C301.141 32.492 301.405 33.392 301.405 34.52C301.405 35.672 300.997 36.62 300.181 37.364C299.365 38.108 298.285 38.48 296.941 38.48C295.933 38.48 295.033 38.264 294.241 37.832C293.449 37.4 292.729 36.8 292.081 36.032C291.457 35.264 290.857 34.376 290.281 33.368Z" fill="white"/>
</svg>
