<svg width="610" height="39" viewBox="0 0 610 39" fill="none" xmlns="http://www.w3.org/2000/svg">
<g clip-path="url(#clip0_2_96)">
<path d="M0 0H97V38H0V0Z" fill="black"/>
<path d="M21.3213 19.17C21.956 19.17 22.5113 19.058 22.9873 18.834C23.4633 18.61 23.8366 18.3067 24.1073 17.924C24.378 17.5413 24.5133 17.1213 24.5133 16.664C24.5133 16.1973 24.4013 15.768 24.1773 15.376C23.9626 14.984 23.65 14.6667 23.2393 14.424C22.838 14.1813 22.3573 14.06 21.7973 14.06C21.2653 14.06 20.7893 14.172 20.3693 14.396C19.9586 14.6107 19.632 14.9093 19.3893 15.292C19.156 15.6747 19.0393 16.1227 19.0393 16.636H20.1733C20.1733 16.2067 20.332 15.852 20.6493 15.572C20.9666 15.2827 21.354 15.138 21.8113 15.138C22.138 15.138 22.4086 15.2033 22.6233 15.334C22.8473 15.4647 23.0153 15.6513 23.1273 15.894C23.2393 16.1273 23.2953 16.398 23.2953 16.706C23.2953 16.9393 23.2486 17.1587 23.1553 17.364C23.0713 17.5693 22.9453 17.7513 22.7773 17.91C22.6093 18.0593 22.404 18.1807 22.1613 18.274C21.9186 18.358 21.6386 18.4 21.3213 18.4V19.17ZM21.7413 24.14C22.3293 24.14 22.852 24.028 23.3093 23.804C23.7666 23.58 24.126 23.2627 24.3873 22.852C24.658 22.4413 24.7933 21.9607 24.7933 21.41C24.7933 20.9247 24.7 20.5093 24.5133 20.164C24.336 19.8187 24.084 19.5387 23.7573 19.324C23.44 19.1 23.0713 18.9367 22.6513 18.834C22.2406 18.7313 21.7973 18.68 21.3213 18.68V19.45C21.6386 19.45 21.9326 19.4873 22.2033 19.562C22.474 19.6367 22.712 19.7533 22.9173 19.912C23.1226 20.0613 23.2813 20.2527 23.3933 20.486C23.5146 20.71 23.5753 20.9713 23.5753 21.27C23.5753 21.6247 23.5006 21.9327 23.3513 22.194C23.202 22.4553 22.9873 22.6607 22.7073 22.81C22.4366 22.95 22.1146 23.02 21.7413 23.02C21.368 23.02 21.0366 22.95 20.7473 22.81C20.458 22.67 20.2293 22.4787 20.0613 22.236C19.9026 21.9933 19.8233 21.718 19.8233 21.41H18.6193C18.6193 21.7927 18.694 22.152 18.8433 22.488C18.9926 22.8147 19.2026 23.104 19.4733 23.356C19.744 23.5987 20.0706 23.79 20.4533 23.93C20.836 24.07 21.2653 24.14 21.7413 24.14ZM31.6771 18.82H33.2591C33.8471 18.82 34.3558 18.736 34.7851 18.568C35.2238 18.4 35.5645 18.1527 35.8071 17.826C36.0498 17.4993 36.1711 17.1073 36.1711 16.65C36.1711 16.09 36.0498 15.6327 35.8071 15.278C35.5645 14.914 35.2238 14.6433 34.7851 14.466C34.3558 14.2887 33.8471 14.2 33.2591 14.2H30.7391V24H33.3991C34.0338 24 34.5985 23.8973 35.0931 23.692C35.5971 23.4773 35.9938 23.16 36.2831 22.74C36.5818 22.3107 36.7311 21.774 36.7311 21.13C36.7311 20.682 36.6471 20.2947 36.4791 19.968C36.3111 19.6413 36.0731 19.3753 35.7651 19.17C35.4665 18.9553 35.1165 18.7967 34.7151 18.694C34.3138 18.5913 33.8751 18.54 33.3991 18.54H31.6771V19.198H33.3991C33.7165 19.198 34.0058 19.24 34.2671 19.324C34.5285 19.3987 34.7525 19.5153 34.9391 19.674C35.1351 19.8327 35.2845 20.0287 35.3871 20.262C35.4898 20.4953 35.5411 20.7613 35.5411 21.06C35.5411 21.4613 35.4478 21.802 35.2611 22.082C35.0838 22.362 34.8318 22.5767 34.5051 22.726C34.1878 22.8753 33.8191 22.95 33.3991 22.95H31.9291V15.25H33.2591C33.7538 15.25 34.1645 15.3807 34.4911 15.642C34.8178 15.894 34.9811 16.2533 34.9811 16.72C34.9811 17.028 34.9065 17.2893 34.7571 17.504C34.6078 17.7187 34.4025 17.882 34.1411 17.994C33.8798 18.106 33.5858 18.162 33.2591 18.162H31.6771V18.82ZM38.5458 14.2V24H43.5858V22.88H39.7358V14.2H38.5458ZM45.1247 19.1C45.1247 18.3627 45.2834 17.7047 45.6007 17.126C45.9274 16.5473 46.3707 16.09 46.9307 15.754C47.4907 15.418 48.1254 15.25 48.8347 15.25C49.5534 15.25 50.188 15.418 50.7387 15.754C51.2987 16.09 51.7374 16.5473 52.0547 17.126C52.3814 17.7047 52.5447 18.3627 52.5447 19.1C52.5447 19.8373 52.3814 20.4953 52.0547 21.074C51.7374 21.6527 51.2987 22.11 50.7387 22.446C50.188 22.782 49.5534 22.95 48.8347 22.95C48.1254 22.95 47.4907 22.782 46.9307 22.446C46.3707 22.11 45.9274 21.6527 45.6007 21.074C45.2834 20.4953 45.1247 19.8373 45.1247 19.1ZM43.8647 19.1C43.8647 19.8093 43.986 20.472 44.2287 21.088C44.4807 21.704 44.8307 22.2407 45.2787 22.698C45.7267 23.146 46.254 23.5007 46.8607 23.762C47.4674 24.014 48.1254 24.14 48.8347 24.14C49.5534 24.14 50.2114 24.014 50.8087 23.762C51.4154 23.5007 51.9427 23.146 52.3907 22.698C52.8387 22.2407 53.184 21.704 53.4267 21.088C53.6787 20.472 53.8047 19.8093 53.8047 19.1C53.8047 18.3813 53.6787 17.7187 53.4267 17.112C53.184 16.496 52.8387 15.964 52.3907 15.516C51.9427 15.0587 51.4154 14.704 50.8087 14.452C50.2114 14.1907 49.5534 14.06 48.8347 14.06C48.1254 14.06 47.4674 14.1907 46.8607 14.452C46.254 14.704 45.7267 15.0587 45.2787 15.516C44.8307 15.964 44.4807 16.496 44.2287 17.112C43.986 17.7187 43.8647 18.3813 43.8647 19.1ZM60.0352 20.15H63.2972C63.2132 20.5327 63.0779 20.892 62.8912 21.228C62.7139 21.564 62.4852 21.8627 62.2052 22.124C61.9252 22.3853 61.5892 22.5907 61.1972 22.74C60.8146 22.88 60.3806 22.95 59.8952 22.95C59.2046 22.95 58.5792 22.7867 58.0192 22.46C57.4592 22.1333 57.0112 21.6807 56.6752 21.102C56.3486 20.5233 56.1852 19.856 56.1852 19.1C56.1852 18.3347 56.3486 17.6673 56.6752 17.098C57.0112 16.5193 57.4592 16.0667 58.0192 15.74C58.5792 15.4133 59.2046 15.25 59.8952 15.25C60.6419 15.25 61.2906 15.3993 61.8412 15.698C62.3919 15.9873 62.8212 16.3933 63.1292 16.916L63.9692 16.146C63.6892 15.6887 63.3439 15.306 62.9332 14.998C62.5319 14.69 62.0746 14.4567 61.5612 14.298C61.0572 14.1393 60.5019 14.06 59.8952 14.06C59.1859 14.06 58.5279 14.186 57.9212 14.438C57.3146 14.6807 56.7872 15.0307 56.3392 15.488C55.8912 15.936 55.5412 16.468 55.2892 17.084C55.0466 17.7 54.9252 18.372 54.9252 19.1C54.9252 19.828 55.0466 20.5 55.2892 21.116C55.5412 21.732 55.8912 22.2687 56.3392 22.726C56.7872 23.174 57.3146 23.524 57.9212 23.776C58.5279 24.0187 59.1859 24.14 59.8952 24.14C60.6419 24.14 61.3046 24.0047 61.8832 23.734C62.4712 23.454 62.9659 23.076 63.3672 22.6C63.7686 22.124 64.0719 21.5827 64.2772 20.976C64.4826 20.36 64.5852 19.7113 64.5852 19.03H60.0352V20.15Z" fill="white"/>
</g>
<g clip-path="url(#clip1_2_96)">
<path d="M107 0H204V38H107V0Z" fill="black"/>
<path d="M124.492 24H131.408V22.88H126.942L130.064 19.702C130.447 19.31 130.759 18.8667 131.002 18.372C131.245 17.8773 131.366 17.378 131.366 16.874C131.366 16.5753 131.305 16.2627 131.184 15.936C131.063 15.6093 130.876 15.306 130.624 15.026C130.372 14.7367 130.05 14.5033 129.658 14.326C129.266 14.1393 128.799 14.046 128.258 14.046C127.586 14.046 127.007 14.1953 126.522 14.494C126.046 14.7833 125.682 15.194 125.43 15.726C125.178 16.2487 125.052 16.86 125.052 17.56H126.242C126.242 17.0653 126.321 16.6407 126.48 16.286C126.639 15.922 126.867 15.6467 127.166 15.46C127.474 15.264 127.838 15.166 128.258 15.166C128.557 15.166 128.823 15.2173 129.056 15.32C129.289 15.4227 129.485 15.558 129.644 15.726C129.812 15.894 129.938 16.0807 130.022 16.286C130.106 16.4913 130.148 16.7013 130.148 16.916C130.148 17.1773 130.106 17.4293 130.022 17.672C129.947 17.9053 129.831 18.1387 129.672 18.372C129.523 18.596 129.341 18.8247 129.126 19.058L124.492 24ZM137.864 21.032L136.912 21.676C137.127 22.1053 137.402 22.5113 137.738 22.894C138.083 23.2673 138.48 23.5707 138.928 23.804C139.385 24.028 139.88 24.14 140.412 24.14C140.804 24.14 141.177 24.0747 141.532 23.944C141.896 23.8133 142.218 23.6267 142.498 23.384C142.787 23.1413 143.011 22.8473 143.17 22.502C143.338 22.1567 143.422 21.7693 143.422 21.34C143.422 20.892 143.343 20.5093 143.184 20.192C143.025 19.8653 142.82 19.59 142.568 19.366C142.325 19.1327 142.059 18.9413 141.77 18.792C141.481 18.6427 141.205 18.5213 140.944 18.428C140.375 18.232 139.922 18.036 139.586 17.84C139.259 17.6347 139.026 17.42 138.886 17.196C138.746 16.9627 138.676 16.7107 138.676 16.44C138.676 16.1227 138.797 15.838 139.04 15.586C139.283 15.3247 139.67 15.194 140.202 15.194C140.585 15.194 140.907 15.2687 141.168 15.418C141.439 15.5673 141.667 15.7587 141.854 15.992C142.041 16.2253 142.195 16.4633 142.316 16.706L143.338 16.118C143.179 15.7727 142.96 15.446 142.68 15.138C142.4 14.8207 142.059 14.564 141.658 14.368C141.266 14.1627 140.804 14.06 140.272 14.06C139.721 14.06 139.231 14.172 138.802 14.396C138.373 14.6107 138.037 14.9093 137.794 15.292C137.551 15.6747 137.43 16.1087 137.43 16.594C137.43 17.042 137.514 17.42 137.682 17.728C137.859 18.036 138.083 18.2973 138.354 18.512C138.625 18.7173 138.909 18.89 139.208 19.03C139.507 19.1607 139.777 19.268 140.02 19.352C140.393 19.4827 140.743 19.632 141.07 19.8C141.406 19.9587 141.677 20.1687 141.882 20.43C142.087 20.6913 142.19 21.0413 142.19 21.48C142.19 21.928 142.031 22.2967 141.714 22.586C141.397 22.8753 140.977 23.02 140.454 23.02C140.062 23.02 139.712 22.936 139.404 22.768C139.096 22.6 138.816 22.3667 138.564 22.068C138.321 21.7693 138.088 21.424 137.864 21.032ZM145.828 19.24H152.548V18.12H145.828V19.24ZM151.75 14.2V24H152.94V14.2H151.75ZM145.17 14.2V24H146.36V14.2H145.17ZM155.878 19.1C155.878 18.3627 156.036 17.7047 156.354 17.126C156.68 16.5473 157.124 16.09 157.684 15.754C158.244 15.418 158.878 15.25 159.588 15.25C160.306 15.25 160.941 15.418 161.492 15.754C162.052 16.09 162.49 16.5473 162.808 17.126C163.134 17.7047 163.298 18.3627 163.298 19.1C163.298 19.8373 163.134 20.4953 162.808 21.074C162.49 21.6527 162.052 22.11 161.492 22.446C160.941 22.782 160.306 22.95 159.588 22.95C158.878 22.95 158.244 22.782 157.684 22.446C157.124 22.11 156.68 21.6527 156.354 21.074C156.036 20.4953 155.878 19.8373 155.878 19.1ZM154.618 19.1C154.618 19.8093 154.739 20.472 154.982 21.088C155.234 21.704 155.584 22.2407 156.032 22.698C156.48 23.146 157.007 23.5007 157.614 23.762C158.22 24.014 158.878 24.14 159.588 24.14C160.306 24.14 160.964 24.014 161.562 23.762C162.168 23.5007 162.696 23.146 163.144 22.698C163.592 22.2407 163.937 21.704 164.18 21.088C164.432 20.472 164.558 19.8093 164.558 19.1C164.558 18.3813 164.432 17.7187 164.18 17.112C163.937 16.496 163.592 15.964 163.144 15.516C162.696 15.0587 162.168 14.704 161.562 14.452C160.964 14.1907 160.306 14.06 159.588 14.06C158.878 14.06 158.22 14.1907 157.614 14.452C157.007 14.704 156.48 15.0587 156.032 15.516C155.584 15.964 155.234 16.496 154.982 17.112C154.739 17.7187 154.618 18.3813 154.618 19.1ZM166.238 14.2V24H167.428V14.2H166.238ZM166.896 15.32H168.898C169.533 15.32 170.046 15.474 170.438 15.782C170.839 16.0807 171.04 16.5333 171.04 17.14C171.04 17.7373 170.839 18.19 170.438 18.498C170.046 18.806 169.533 18.96 168.898 18.96H166.896V20.08H168.898C169.533 20.08 170.097 19.9633 170.592 19.73C171.096 19.4873 171.493 19.1467 171.782 18.708C172.081 18.26 172.23 17.7373 172.23 17.14C172.23 16.5333 172.081 16.0107 171.782 15.572C171.493 15.1333 171.096 14.7973 170.592 14.564C170.097 14.3213 169.533 14.2 168.898 14.2H166.896V15.32Z" fill="white"/>
</g>
<defs>
<clipPath id="clip0_2_96">
<rect width="97" height="38" fill="white"/>
</clipPath>
<clipPath id="clip1_2_96">
<rect width="97" height="38" fill="white" transform="translate(107)"/>
</clipPath>
</defs>
</svg>
