<svg width="136" height="20" viewBox="0 0 136 20" fill="none" xmlns="http://www.w3.org/2000/svg">
<path d="M0 0H136V20H0V0Z" fill="#E2B013"/>
<path d="M9.7157 5.2V15H10.9057V5.2H9.7157ZM12.6557 15C13.6077 15 14.4524 14.7947 15.1897 14.384C15.927 13.9733 16.5057 13.404 16.9257 12.676C17.3457 11.9387 17.5557 11.08 17.5557 10.1C17.5557 9.12 17.3457 8.266 16.9257 7.538C16.5057 6.80067 15.927 6.22667 15.1897 5.816C14.4524 5.40533 13.6077 5.2 12.6557 5.2H10.3737V6.39H12.6557C13.2064 6.39 13.7104 6.47867 14.1677 6.656C14.625 6.824 15.017 7.07133 15.3437 7.398C15.6704 7.71533 15.9224 8.10267 16.0997 8.56C16.277 9.01733 16.3657 9.53067 16.3657 10.1C16.3657 10.6693 16.277 11.1827 16.0997 11.64C15.9224 12.0973 15.6704 12.4893 15.3437 12.816C15.017 13.1333 14.625 13.3807 14.1677 13.558C13.7104 13.726 13.2064 13.81 12.6557 13.81H10.3737V15H12.6557ZM19.8893 15H24.8313V13.88H19.8893V15ZM19.8893 6.32H24.8313V5.2H19.8893V6.32ZM19.8893 10.24H24.5513V9.12H19.8893V10.24ZM19.2313 5.2V15H20.4213V5.2H19.2313ZM27.2926 12.032L26.3406 12.676C26.5553 13.1053 26.8306 13.5113 27.1666 13.894C27.5119 14.2673 27.9086 14.5707 28.3566 14.804C28.8139 15.028 29.3086 15.14 29.8406 15.14C30.2326 15.14 30.6059 15.0747 30.9606 14.944C31.3246 14.8133 31.6466 14.6267 31.9266 14.384C32.2159 14.1413 32.4399 13.8473 32.5986 13.502C32.7666 13.1567 32.8506 12.7693 32.8506 12.34C32.8506 11.892 32.7713 11.5093 32.6126 11.192C32.4539 10.8653 32.2486 10.59 31.9966 10.366C31.7539 10.1327 31.4879 9.94133 31.1986 9.792C30.9093 9.64267 30.6339 9.52133 30.3726 9.428C29.8033 9.232 29.3506 9.036 29.0146 8.84C28.6879 8.63467 28.4546 8.42 28.3146 8.196C28.1746 7.96267 28.1046 7.71067 28.1046 7.44C28.1046 7.12267 28.2259 6.838 28.4686 6.586C28.7113 6.32467 29.0986 6.194 29.6306 6.194C30.0133 6.194 30.3353 6.26867 30.5966 6.418C30.8673 6.56733 31.0959 6.75867 31.2826 6.992C31.4693 7.22533 31.6233 7.46333 31.7446 7.706L32.7666 7.118C32.6079 6.77267 32.3886 6.446 32.1086 6.138C31.8286 5.82067 31.4879 5.564 31.0866 5.368C30.6946 5.16267 30.2326 5.06 29.7006 5.06C29.1499 5.06 28.6599 5.172 28.2306 5.396C27.8013 5.61067 27.4653 5.90933 27.2226 6.292C26.9799 6.67467 26.8586 7.10867 26.8586 7.594C26.8586 8.042 26.9426 8.42 27.1106 8.728C27.2879 9.036 27.5119 9.29733 27.7826 9.512C28.0533 9.71733 28.3379 9.89 28.6366 10.03C28.9353 10.1607 29.2059 10.268 29.4486 10.352C29.8219 10.4827 30.1719 10.632 30.4986 10.8C30.8346 10.9587 31.1053 11.1687 31.3106 11.43C31.5159 11.6913 31.6186 12.0413 31.6186 12.48C31.6186 12.928 31.4599 13.2967 31.1426 13.586C30.8253 13.8753 30.4053 14.02 29.8826 14.02C29.4906 14.02 29.1406 13.936 28.8326 13.768C28.5246 13.6 28.2446 13.3667 27.9926 13.068C27.7499 12.7693 27.5166 12.424 27.2926 12.032ZM34.5985 5.2V15H35.7885V5.2H34.5985ZM42.5802 11.15H45.8422C45.7582 11.5327 45.6228 11.892 45.4362 12.228C45.2588 12.564 45.0302 12.8627 44.7502 13.124C44.4702 13.3853 44.1342 13.5907 43.7422 13.74C43.3595 13.88 42.9255 13.95 42.4402 13.95C41.7495 13.95 41.1242 13.7867 40.5642 13.46C40.0042 13.1333 39.5562 12.6807 39.2202 12.102C38.8935 11.5233 38.7302 10.856 38.7302 10.1C38.7302 9.33467 38.8935 8.66733 39.2202 8.098C39.5562 7.51933 40.0042 7.06667 40.5642 6.74C41.1242 6.41333 41.7495 6.25 42.4402 6.25C43.1868 6.25 43.8355 6.39933 44.3862 6.698C44.9368 6.98733 45.3662 7.39333 45.6742 7.916L46.5142 7.146C46.2342 6.68867 45.8888 6.306 45.4782 5.998C45.0768 5.69 44.6195 5.45667 44.1062 5.298C43.6022 5.13933 43.0468 5.06 42.4402 5.06C41.7308 5.06 41.0728 5.186 40.4662 5.438C39.8595 5.68067 39.3322 6.03067 38.8842 6.488C38.4362 6.936 38.0862 7.468 37.8342 8.084C37.5915 8.7 37.4702 9.372 37.4702 10.1C37.4702 10.828 37.5915 11.5 37.8342 12.116C38.0862 12.732 38.4362 13.2687 38.8842 13.726C39.3322 14.174 39.8595 14.524 40.4662 14.776C41.0728 15.0187 41.7308 15.14 42.4402 15.14C43.1868 15.14 43.8495 15.0047 44.4282 14.734C45.0162 14.454 45.5108 14.076 45.9122 13.6C46.3135 13.124 46.6168 12.5827 46.8222 11.976C47.0275 11.36 47.1302 10.7113 47.1302 10.03H42.5802V11.15ZM56.3056 5.2V12.494L48.8856 4.71V15H50.0756V7.706L57.4956 15.49V5.2H56.3056ZM64.8764 12.06H70.0564L69.6364 10.94H65.2964L64.8764 12.06ZM67.4384 7.412L69.1184 11.36L69.2304 11.64L70.6584 15H71.9884L67.4384 4.71L62.8884 15H64.2184L65.6744 11.556L65.7864 11.304L67.4384 7.412ZM73.1805 5.2V15H74.3705V5.2H73.1805ZM76.1205 15C77.0725 15 77.9172 14.7947 78.6545 14.384C79.3919 13.9733 79.9705 13.404 80.3905 12.676C80.8105 11.9387 81.0205 11.08 81.0205 10.1C81.0205 9.12 80.8105 8.266 80.3905 7.538C79.9705 6.80067 79.3919 6.22667 78.6545 5.816C77.9172 5.40533 77.0725 5.2 76.1205 5.2H73.8385V6.39H76.1205C76.6712 6.39 77.1752 6.47867 77.6325 6.656C78.0899 6.824 78.4819 7.07133 78.8085 7.398C79.1352 7.71533 79.3872 8.10267 79.5645 8.56C79.7419 9.01733 79.8305 9.53067 79.8305 10.1C79.8305 10.6693 79.7419 11.1827 79.5645 11.64C79.3872 12.0973 79.1352 12.4893 78.8085 12.816C78.4819 13.1333 78.0899 13.3807 77.6325 13.558C77.1752 13.726 76.6712 13.81 76.1205 13.81H73.8385V15H76.1205ZM82.6962 5.2V15H83.8862V5.2H82.6962ZM85.6362 15C86.5882 15 87.4328 14.7947 88.1702 14.384C88.9075 13.9733 89.4862 13.404 89.9062 12.676C90.3262 11.9387 90.5362 11.08 90.5362 10.1C90.5362 9.12 90.3262 8.266 89.9062 7.538C89.4862 6.80067 88.9075 6.22667 88.1702 5.816C87.4328 5.40533 86.5882 5.2 85.6362 5.2H83.3542V6.39H85.6362C86.1868 6.39 86.6908 6.47867 87.1482 6.656C87.6055 6.824 87.9975 7.07133 88.3242 7.398C88.6508 7.71533 88.9028 8.10267 89.0802 8.56C89.2575 9.01733 89.3462 9.53067 89.3462 10.1C89.3462 10.6693 89.2575 11.1827 89.0802 11.64C88.9028 12.0973 88.6508 12.4893 88.3242 12.816C87.9975 13.1333 87.6055 13.3807 87.1482 13.558C86.6908 13.726 86.1868 13.81 85.6362 13.81H83.3542V15H85.6362ZM92.2118 5.2V15H93.4018V5.2H92.2118ZM96.3434 10.1C96.3434 9.33467 96.5114 8.66733 96.8474 8.098C97.1928 7.51933 97.6408 7.06667 98.1914 6.74C98.7421 6.41333 99.3394 6.25 99.9834 6.25C100.45 6.25 100.875 6.31067 101.257 6.432C101.649 6.55333 102.004 6.726 102.321 6.95C102.639 7.16467 102.909 7.41667 103.133 7.706V6.138C102.723 5.774 102.275 5.50333 101.789 5.326C101.304 5.14867 100.702 5.06 99.9834 5.06C99.3021 5.06 98.6628 5.186 98.0654 5.438C97.4774 5.68067 96.9594 6.03067 96.5114 6.488C96.0634 6.936 95.7134 7.468 95.4614 8.084C95.2094 8.7 95.0834 9.372 95.0834 10.1C95.0834 10.828 95.2094 11.5 95.4614 12.116C95.7134 12.732 96.0634 13.2687 96.5114 13.726C96.9594 14.174 97.4774 14.524 98.0654 14.776C98.6628 15.0187 99.3021 15.14 99.9834 15.14C100.702 15.14 101.304 15.0513 101.789 14.874C102.275 14.6967 102.723 14.426 103.133 14.062V12.494C102.909 12.7833 102.639 13.04 102.321 13.264C102.004 13.4787 101.649 13.6467 101.257 13.768C100.875 13.8893 100.45 13.95 99.9834 13.95C99.3394 13.95 98.7421 13.7867 98.1914 13.46C97.6408 13.1333 97.1928 12.6807 96.8474 12.102C96.5114 11.5233 96.3434 10.856 96.3434 10.1ZM103.824 6.32H106.344V15H107.534V6.32H110.054V5.2H103.824V6.32ZM111.969 15H116.911V13.88H111.969V15ZM111.969 6.32H116.911V5.2H111.969V6.32ZM111.969 10.24H116.631V9.12H111.969V10.24ZM111.311 5.2V15H112.501V5.2H111.311ZM119.009 5.2V15H120.199V5.2H119.009ZM121.949 15C122.901 15 123.745 14.7947 124.483 14.384C125.22 13.9733 125.799 13.404 126.219 12.676C126.639 11.9387 126.849 11.08 126.849 10.1C126.849 9.12 126.639 8.266 126.219 7.538C125.799 6.80067 125.22 6.22667 124.483 5.816C123.745 5.40533 122.901 5.2 121.949 5.2H119.667V6.39H121.949C122.499 6.39 123.003 6.47867 123.461 6.656C123.918 6.824 124.31 7.07133 124.637 7.398C124.963 7.71533 125.215 8.10267 125.393 8.56C125.57 9.01733 125.659 9.53067 125.659 10.1C125.659 10.6693 125.57 11.1827 125.393 11.64C125.215 12.0973 124.963 12.4893 124.637 12.816C124.31 13.1333 123.918 13.3807 123.461 13.558C123.003 13.726 122.499 13.81 121.949 13.81H119.667V15H121.949Z" fill="white"/>
</svg>
