<svg width="229" height="65" viewBox="0 0 229 65" fill="none" xmlns="http://www.w3.org/2000/svg">
<path d="M0 0H229V65H0V0Z" fill="black"/>
<path d="M32.7 15.8V32.72C32.7 33.968 32.892 35.12 33.276 36.176C33.684 37.232 34.26 38.144 35.004 38.912C35.772 39.68 36.684 40.28 37.74 40.712C38.796 41.144 39.972 41.36 41.268 41.36C42.564 41.36 43.74 41.144 44.796 40.712C45.852 40.28 46.752 39.68 47.496 38.912C48.264 38.144 48.84 37.232 49.224 36.176C49.632 35.12 49.836 33.968 49.836 32.72V15.8H46.776V32.72C46.776 34.448 46.308 35.84 45.372 36.896C44.436 37.952 43.068 38.48 41.268 38.48C39.468 38.48 38.1 37.952 37.164 36.896C36.228 35.84 35.76 34.448 35.76 32.72V15.8H32.7ZM52.7152 24.44V27.14H60.9952V24.44H52.7152ZM55.4152 18.68V41H58.2952V18.68H55.4152ZM63.8836 17.6C63.8836 18.128 64.0756 18.596 64.4596 19.004C64.8676 19.388 65.3356 19.58 65.8636 19.58C66.4156 19.58 66.8836 19.388 67.2676 19.004C67.6516 18.596 67.8436 18.128 67.8436 17.6C67.8436 17.048 67.6516 16.58 67.2676 16.196C66.8836 15.812 66.4156 15.62 65.8636 15.62C65.3356 15.62 64.8676 15.812 64.4596 16.196C64.0756 16.58 63.8836 17.048 63.8836 17.6ZM64.4236 24.44V41H67.3036V24.44H64.4236ZM73.2352 12.92V41H76.1152V12.92H73.2352ZM81.532 17.6C81.532 18.128 81.724 18.596 82.108 19.004C82.516 19.388 82.984 19.58 83.512 19.58C84.064 19.58 84.532 19.388 84.916 19.004C85.3 18.596 85.492 18.128 85.492 17.6C85.492 17.048 85.3 16.58 84.916 16.196C84.532 15.812 84.064 15.62 83.512 15.62C82.984 15.62 82.516 15.812 82.108 16.196C81.724 16.58 81.532 17.048 81.532 17.6ZM82.072 24.44V41H84.952V24.44H82.072ZM88.3636 24.44V27.14H96.6436V24.44H88.3636ZM91.0636 18.68V41H93.9436V18.68H91.0636ZM112.672 24.44H109.432L104.32 37.256L105.508 37.4L100.252 24.44H96.832L103.168 38.66L98.632 48.92H101.872L112.672 24.44Z" fill="white"/>
</svg>
